<svg xmlns="http://www.w3.org/2000/svg" width="18" height="18" viewBox="0 0 18 18">
  <defs>
    <style>
      .cls-1 {
        fill: none;
      }

      .cls-2 {
      }
    </style>
  </defs>
  <g id="cz-yydj-nor" transform="translate(-1045 -662)">
    <g id="组_1943" data-name="组 1943" transform="translate(1045 662)">
      <path id="路径_1754" data-name="路径 1754" class="cls-1" d="M0,0H18V18H0Z"/>
      <path id="路径_1755" data-name="路径 1755" class="cls-2" d="M15.042,3.161l1.06,1.06L14.246,6.078,16.1,7.934,14.246,9.79,16.1,11.647,14.246,13.5,16.1,15.36l-1.06,1.061L12.125,13.5l1.856-1.856L12.125,9.79l1.856-1.856L12.125,6.078l2.917-2.917Zm-4.877.434a.375.375,0,0,1,.085.237V15.749a.375.375,0,0,1-.613.29l-3.97-3.25H2.75A.75.75,0,0,1,2,12.04V7.54a.75.75,0,0,1,.75-.75H5.667L9.637,3.541a.375.375,0,0,1,.528.053Z" transform="translate(-0.5 -0.79)"/>
    </g>
  </g>
</svg>
