<svg xmlns="http://www.w3.org/2000/svg" width="18" height="18" viewBox="0 0 18 18">
  <defs>
    <style>
      .cls-1 {
        fill: none;
      }

      .cls-2 {
      }
    </style>
  </defs>
  <g id="cz-spjk-nor" transform="translate(-1136 -662)">
    <g id="组_1949" data-name="组 1949" transform="translate(1136 662)">
      <path id="路径_1760" data-name="路径 1760" class="cls-1" d="M0,0H18V18H0Z"/>
      <path id="路径_1761" data-name="路径 1761" class="cls-2" d="M12.25,4a.75.75,0,0,1,.75.75V7.9l3.91-2.737a.375.375,0,0,1,.59.307v9.06a.375.375,0,0,1-.59.308L13,12.1v3.15a.75.75,0,0,1-.75.75H1.75A.75.75,0,0,1,1,15.25V4.75A.75.75,0,0,1,1.75,4ZM5.8,7.622a.3.3,0,0,0-.294.24L5.5,7.921v4.156a.3.3,0,0,0,.406.281l.055-.027,3.266-2.079a.3.3,0,0,0,.047-.468l-.047-.038L5.961,7.668A.3.3,0,0,0,5.8,7.623Z" transform="translate(-0.25 -1)"/>
    </g>
  </g>
</svg>
