<svg id="chongdian" xmlns="http://www.w3.org/2000/svg" width="16" height="16" viewBox="0 0 16 16">
  <defs>
    <style>
      .cls-1 {
        fill: none;
      }

      .cls-2 {
        fill: #fff;
      }
    </style>
  </defs>
  <path id="路径_1777" data-name="路径 1777" class="cls-1" d="M0,0H16V16H0Z"/>
  <path id="路径_1778" data-name="路径 1778" class="cls-2" d="M9.128,12.941v1.368h3.419v1.368H9.128a1.269,1.269,0,0,1-1.14-1.368V12.941H6.279A2.539,2.539,0,0,1,4,10.205V5.419a.635.635,0,0,1,.57-.684H6.279V2h1.14V4.735H9.7V2h1.14V4.735h1.709a.635.635,0,0,1,.57.684v4.787a2.539,2.539,0,0,1-2.279,2.735ZM6.279,11.573h4.559a1.269,1.269,0,0,0,1.14-1.368V8.154H5.14v2.051A1.269,1.269,0,0,0,6.279,11.573Zm5.7-5.47H5.14v.684h6.838ZM8.559,10.547a.635.635,0,0,1-.57-.684.635.635,0,0,1,.57-.684.635.635,0,0,1,.57.684A.635.635,0,0,1,8.559,10.547Z" transform="translate(-0.559 -0.838)"/>
</svg>
