<svg id="组_1933" data-name="组 1933" xmlns="http://www.w3.org/2000/svg" width="33.981" height="33.981" viewBox="0 0 33.981 33.981">
  <defs>
    <style>
      .cls-1 {
        fill: none;
      }

      .cls-2 {
        fill: #f1f8ff;
      }

      .cls-3 {
        fill: #aed4fe;
      }
    </style>
  </defs>
  <path id="路径_1667" data-name="路径 1667" class="cls-1" d="M0,0H33.981V33.981H0Z"/>
  <rect id="矩形_648" data-name="矩形 648" class="cls-2" width="15" height="21" transform="translate(4.991 7)"/>
  <path id="路径_1668" data-name="路径 1668" class="cls-3" d="M23.238,27.07H9.079v1.416A1.416,1.416,0,0,1,7.664,29.9H4.832a1.416,1.416,0,0,1-1.416-1.416V15.743H2V10.079H3.416V5.832A2.832,2.832,0,0,1,6.248,3H26.07A2.832,2.832,0,0,1,28.9,5.832v4.248h1.416v5.664H28.9V28.486A1.416,1.416,0,0,1,27.486,29.9H24.654a1.416,1.416,0,0,1-1.416-1.416ZM6.248,5.832v9.911H26.07V5.832Zm3.54,18.407a2.124,2.124,0,1,0-2.124-2.124A2.124,2.124,0,0,0,9.787,24.238Zm12.743,0a2.124,2.124,0,1,0-2.124-2.124A2.124,2.124,0,0,0,22.53,24.238Z" transform="translate(0.832 1.248)"/>
</svg>
