<svg xmlns="http://www.w3.org/2000/svg" width="100" height="22.823" viewBox="0 0 100 22.823">
  <g id="logo-haiqi" transform="translate(0.5 0.5)">
    <g id="组_225" data-name="组 225" transform="translate(-0.5 -0.5)">
      <path id="路径_419" data-name="路径 419" d="M16.768-.5h.6a9.722,9.722,0,0,1,3.367.637A3.049,3.049,0,0,1,22.648,4.19a1.892,1.892,0,0,1-.18.445.384.384,0,0,1-.361.024,2.909,2.909,0,0,0-1.563-1.034A8.45,8.45,0,0,0,17.982,3.3a17.34,17.34,0,0,0-8.5,2.369A12.422,12.422,0,0,0,6.294,8.4a7.917,7.917,0,0,0-1.587,3.151,4.182,4.182,0,0,0,2.754,4.966,10.161,10.161,0,0,0,3.463.673,26.328,26.328,0,0,0,6.037-.6q1.944-.4,3.848-.962a.444.444,0,0,1,.517.18.63.63,0,0,1,0,.529q-.892,2.253-1.8,4.5l-.084.084a24.54,24.54,0,0,1-7.552,1.407h-.673a17.053,17.053,0,0,1-5.8-1.094A10.92,10.92,0,0,1,1.484,18.62,7.59,7.59,0,0,1-.5,14.122V12.848A11.571,11.571,0,0,1,1.244,7.821,16.462,16.462,0,0,1,6.378,2.759,21.36,21.36,0,0,1,16.768-.5Z" transform="translate(0.5 0.5)" fill="#06a0a9" fill-rule="evenodd"/>
    </g>
    <g id="组_226" data-name="组 226" transform="translate(53.06 1.399)">
      <path id="路径_420" data-name="路径 420" d="M2229.675,82.543a.116.116,0,0,0-.024-.1.026.026,0,0,0-.024.024l-.577.962a.922.922,0,0,1-.625.168q-.9-.027-1.8-.036a.129.129,0,0,1-.12-.1,1.659,1.659,0,0,1,.132-.3q1.3-2.182,2.549-4.4a.942.942,0,0,1,.252-.253q.6-.041,1.2-.036t1.179.036l.024.024a.653.653,0,0,0-.036.156,3.755,3.755,0,0,1-.264.433q-.056.156.108.156,3.535-.021,7.071,0,.662.012,1.323.036a.265.265,0,0,0,.024.108,3.542,3.542,0,0,1-.132.445q-.171.391-.313.794a.509.509,0,0,1-.156.228q-.45.025-.9.036-3.818-.03-7.636-.036a.557.557,0,0,0-.565.253,1,1,0,0,0-.132.385q3.758.048,7.516,0a1.542,1.542,0,0,1,.565.072.445.445,0,0,1-.012.289,8.241,8.241,0,0,1-.505,1.227,3.921,3.921,0,0,1-.421.036q-3.308.024-6.614,0-.517-.006-1.034-.036a.706.706,0,0,1-.036-.1A4.791,4.791,0,0,1,2229.675,82.543Z" transform="translate(-2226.5 -78.478)" fill="#11a1aa" fill-rule="evenodd"/>
    </g>
    <g id="组_227" data-name="组 227" transform="translate(32.64 1.407)">
      <path id="路径_421" data-name="路径 421" d="M1391.9,85.821a.373.373,0,0,1,.024.168.69.69,0,0,1-.06.265,8.418,8.418,0,0,0-.313.818,1.135,1.135,0,0,1-.18.3,4.485,4.485,0,0,1-.758-.012l-.325.036a.12.12,0,0,0-.084.06q-.04.546-.036,1.094.026,1.2.012,2.393a.277.277,0,0,1-.2.3q-4.961.007-9.921.036a1.07,1.07,0,0,1-.493-.1.338.338,0,0,1-.084-.216q0-1.569.036-3.139-.019-.138-.036-.277a.23.23,0,0,0-.06-.12.079.079,0,0,0-.072-.06,1.738,1.738,0,0,0-.288-.012,4.219,4.219,0,0,1-.842,0,.462.462,0,0,1-.06-.168q-.024-.625,0-1.251a.286.286,0,0,1,.337-.192,5.905,5.905,0,0,0,.878.012.211.211,0,0,0,.084-.084,8.03,8.03,0,0,0,.036-.842,7.481,7.481,0,0,0-.036-.818.11.11,0,0,0-.06-.06,11.5,11.5,0,0,0-1.647-.012q-.151-.022-.3-.048a.442.442,0,0,1,.012-.144q1.4-2.409,2.778-4.8a.788.788,0,0,1,.553-.144q.927.014,1.852,0a.185.185,0,0,1,.144.12,1.674,1.674,0,0,1-.228.445.473.473,0,0,0-.06.265q4.2.013,8.393.012.181.012.361.036a.711.711,0,0,1-.036.337q-.236.606-.493,1.2-.336.03-.673.036-4.173.015-8.345,0a.441.441,0,0,0-.325.156,2.335,2.335,0,0,1-.216.337,1.526,1.526,0,0,0-.156.373.154.154,0,0,0,.024.072l.481.024q2.748.005,5.5-.012,1.522-.005,3.042.036a.25.25,0,0,1,.132.277q-.017,1.479,0,2.958a1.6,1.6,0,0,0,.036.24.246.246,0,0,0,.1.036,9.346,9.346,0,0,0,1.118-.012A2.456,2.456,0,0,1,1391.9,85.821Zm-4.185-.048q-.735.011-1.467-.024c-.016-.014-.032-.03-.048-.048a.414.414,0,0,1-.012-.241q.089-.279.192-.553a.669.669,0,0,0,.024-.313.13.13,0,0,0-.084-.072.08.08,0,0,0-.048-.036q-1.041-.03-2.068.012a.181.181,0,0,0-.132.144q-.145.536-.325,1.058l-.072.06a10.035,10.035,0,0,1-1.852-.024.292.292,0,0,1-.06-.18q-.024-.83,0-1.659a.1.1,0,0,1,.108-.108q2.958-.024,5.916,0a.113.113,0,0,1,.084.084q.024.89,0,1.78A.177.177,0,0,1,1387.711,85.773Zm-1.251,1.587q.663-.014,1.323.036l.036.036a2.8,2.8,0,0,1,.084.794q-.018.565-.036,1.13a.22.22,0,0,1-.036.06q-.54.044-1.082.048-2.273.024-4.546,0a3.5,3.5,0,0,1-.4-.036,6.653,6.653,0,0,1-.024-1.948.169.169,0,0,1,.06-.084,11.715,11.715,0,0,1,1.287.012.087.087,0,0,1,.048.048.6.6,0,0,1,0,.241l-.168.722a.162.162,0,0,0,.108.228l.168.024q.938.024,1.876,0a.691.691,0,0,0,.1-.036.523.523,0,0,0,.132-.265q.117-.467.216-.938Q1386.036,87.38,1386.46,87.361Z" transform="translate(-1377.44 -78.806)" fill="#0da1aa" fill-rule="evenodd"/>
    </g>
    <g id="组_228" data-name="组 228" transform="translate(82.728 1.471)">
      <path id="路径_422" data-name="路径 422" d="M3462.959,84.815a.026.026,0,0,0-.024.024q1.118.036,2.237.024a.236.236,0,0,1,.18.144.425.425,0,0,1-.024.265q-.841,1.063-1.7,2.116.3.03.6.036a.267.267,0,0,1,.132.132q.024,2.994,0,5.988a.2.2,0,0,1-.156.156q-1.311.024-2.622,0a.259.259,0,0,1-.156-.2q-.018-2.573-.012-5.147-.565.006-1.13-.012a.274.274,0,0,1-.156-.373q1.11-1.507,2.249-2.994l-2.068-.024a.275.275,0,0,1-.18-.373q1.139-1.561,2.321-3.09,1.38-.06,2.766-.024a.312.312,0,0,1,.084.445Q3464.137,83.366,3462.959,84.815Z" transform="translate(-3460.112 -81.446)" fill="#0ca1aa" fill-rule="evenodd"/>
    </g>
    <g id="组_229" data-name="组 229" transform="translate(89.519 1.639)">
      <path id="路径_423" data-name="路径 423" d="M3742.666,88.439q4.594-.006,9.187.012a.2.2,0,0,1,.157.156q.024.6,0,1.2a.292.292,0,0,1-.181.156q-4.57.024-9.139,0a.29.29,0,0,1-.181-.156q-.024-.613,0-1.227A.306.306,0,0,1,3742.666,88.439Z" transform="translate(-3742.498 -88.437)" fill="#0fa1aa" fill-rule="evenodd"/>
    </g>
    <g id="组_230" data-name="组 230" transform="translate(68.554 1.67)">
      <path id="路径_424" data-name="路径 424" d="M2879.611,90.481a.057.057,0,0,0,.072.048.857.857,0,0,1,.168.1.057.057,0,0,0,.072.048,4.938,4.938,0,0,1,1.178.986.066.066,0,0,0,.048.072.275.275,0,0,1,.1.1.114.114,0,0,0,.072.1,2.027,2.027,0,0,1,.313.409,38.528,38.528,0,0,1,.1.144.066.066,0,0,0,.048.072.293.293,0,0,1,.072.12.065.065,0,0,0,.048.072,5.01,5.01,0,0,1,.553,1.275,64.716,64.716,0,0,0,.1.337,6.009,6.009,0,0,1,.1,2.549.11.11,0,0,0-.024.1h-7.672a.268.268,0,0,0-.168-.048.039.039,0,0,1-.048-.024,48.341,48.341,0,0,1-.192-.144.749.749,0,0,1-.18-.433q-.025-.493,0-.986a.662.662,0,0,1,.445-.6q2.729-.036,5.459-.024a.069.069,0,0,0-.024-.072q-.114-.291-.241-.577a.057.057,0,0,0-.048-.072l-.048-.1a.057.057,0,0,0-.048-.072,4.883,4.883,0,0,0-.722-.866.065.065,0,0,0-.072-.048,1.074,1.074,0,0,1-.168-.144,53.028,53.028,0,0,1-.144-.1.066.066,0,0,0-.072-.048q-.4-.213-.818-.385a.267.267,0,0,0-.168-.048,3.692,3.692,0,0,0-3.692,1.13,3.868,3.868,0,0,0-.83,3.487.269.269,0,0,0,.048.168,8.017,8.017,0,0,0,.337.77.065.065,0,0,0,.048.072.039.039,0,0,1,.024.048,35.453,35.453,0,0,0,.1.144,1.131,1.131,0,0,1,.168.216.066.066,0,0,0,.048.072,4.5,4.5,0,0,0,.842.721.057.057,0,0,0,.072.048l.048.024a.057.057,0,0,0,.072.048,3.742,3.742,0,0,0,2.742.337.241.241,0,0,0,.192-.072q.292-.113.577-.24a.066.066,0,0,0,.072-.048q.281-.183.553-.385a.973.973,0,0,0,.313-.313.428.428,0,0,1,.12-.12.066.066,0,0,0,.048-.072.4.4,0,0,1,.12-.144.065.065,0,0,0,.048-.072q1.293-.012,2.574.024a5.908,5.908,0,0,1-6.975,3.752.268.268,0,0,0-.168-.048,1.462,1.462,0,0,1-.289-.072.11.11,0,0,0-.12-.048,4.175,4.175,0,0,1-.865-.385.066.066,0,0,0-.072-.048.3.3,0,0,1-.168-.1.065.065,0,0,0-.072-.048,1.982,1.982,0,0,1-.481-.337.066.066,0,0,0-.072-.048.072.072,0,0,1-.048-.048.114.114,0,0,0-.1-.072.158.158,0,0,1-.072-.072.113.113,0,0,0-.1-.072,5.735,5.735,0,0,1-1.058-1.275.057.057,0,0,0-.048-.072l-.024-.048a.057.057,0,0,0-.048-.072,6.307,6.307,0,0,1-.373-5.411,4.029,4.029,0,0,1,.373-.746.065.065,0,0,0,.048-.072.039.039,0,0,1,.024-.048.066.066,0,0,0,.048-.072.292.292,0,0,1,.072-.12.066.066,0,0,0,.048-.072,1.533,1.533,0,0,1,.264-.361.066.066,0,0,0,.048-.072.949.949,0,0,1,.24-.265.114.114,0,0,0,.072-.1.275.275,0,0,1,.1-.1.944.944,0,0,0,.265-.24.072.072,0,0,1,.048-.048.181.181,0,0,0,.12-.1.021.021,0,0,1,.024-.024.181.181,0,0,0,.12-.1.666.666,0,0,1,.192-.144.114.114,0,0,0,.1-.072,194.11,194.11,0,0,1,.217-.144.3.3,0,0,1,.168-.1.065.065,0,0,0,.072-.048.848.848,0,0,1,.24-.12.065.065,0,0,0,.072-.048,3.512,3.512,0,0,1,.722-.289.527.527,0,0,0,.24-.072.268.268,0,0,0,.168-.048A5.87,5.87,0,0,1,2879.611,90.481Z" transform="translate(-2870.742 -89.741)" fill="#f0861c" fill-rule="evenodd"/>
    </g>
    <g id="组_231" data-name="组 231" transform="translate(28.997 1.723)">
      <path id="路径_425" data-name="路径 425" d="M1226.541,91.955q.987-.014,1.972.036a.343.343,0,0,1,.156.06.77.77,0,0,1,.1.289q.024.83,0,1.659a.429.429,0,0,1-.156.3,12.59,12.59,0,0,1-2.429,0,.332.332,0,0,1-.156-.228l-.024-.192q.023-.758,0-1.515A.406.406,0,0,1,1226.541,91.955Z" transform="translate(-1226 -91.941)" fill="#12a1aa" fill-rule="evenodd"/>
    </g>
    <g id="组_232" data-name="组 232" transform="translate(49.296 1.735)">
      <path id="路径_426" data-name="路径 426" d="M2070.373,92.439q.9-.006,1.8.012a3.421,3.421,0,0,1,.457.048.424.424,0,0,1,.108.132,2.372,2.372,0,0,1,.06.541q-.025.643-.012,1.287a.36.36,0,0,1-.445.373q-.974.029-1.948-.024a.3.3,0,0,1-.373-.253q-.012-.108-.024-.216.023-.734,0-1.467a.47.47,0,0,1,.2-.4A.59.59,0,0,0,2070.373,92.439Z" transform="translate(-2070 -92.438)" fill="#11a1aa" fill-rule="evenodd"/>
    </g>
    <g id="组_233" data-name="组 233" transform="translate(72.925 1.857)">
      <path id="路径_427" data-name="路径 427" d="M3052.668,97.492a.268.268,0,0,1-.168.048A.268.268,0,0,1,3052.668,97.492Z" transform="translate(-3052.5 -97.492)" fill="#fab779" fill-rule="evenodd"/>
    </g>
    <g id="组_234" data-name="组 234" transform="translate(72.684 1.905)">
      <path id="路径_428" data-name="路径 428" d="M3042.741,99.5a.529.529,0,0,1-.241.072A.529.529,0,0,1,3042.741,99.5Z" transform="translate(-3042.5 -99.5)" fill="#fab677" fill-rule="evenodd"/>
    </g>
    <g id="组_235" data-name="组 235" transform="translate(71.891 2.266)">
      <path id="路径_429" data-name="路径 429" d="M3009.572,114.495a.066.066,0,0,1-.072.048A.066.066,0,0,1,3009.572,114.495Z" transform="translate(-3009.5 -114.495)" fill="#fcc390" fill-rule="evenodd"/>
    </g>
    <g id="组_236" data-name="组 236" transform="translate(77.422 2.41)">
      <path id="路径_430" data-name="路径 430" d="M3239.5,120.5a.171.171,0,0,1,.072.048A.057.057,0,0,1,3239.5,120.5Z" transform="translate(-3239.5 -120.5)" fill="#ffc390" fill-rule="evenodd"/>
    </g>
    <g id="组_237" data-name="组 237" transform="translate(71.578 2.434)">
      <path id="路径_431" data-name="路径 431" d="M2996.572,121.495a.066.066,0,0,1-.072.048A.066.066,0,0,1,2996.572,121.495Z" transform="translate(-2996.5 -121.495)" fill="#fbc18c" fill-rule="evenodd"/>
    </g>
    <g id="组_238" data-name="组 238" transform="translate(8.785 2.559)">
      <path id="路径_432" data-name="路径 432" d="M400.648,126.869a.114.114,0,0,0,.072.1.158.158,0,0,1,.072.072.066.066,0,0,0,.048.072.334.334,0,0,1,.12.168.114.114,0,0,0,.072.1,2.614,2.614,0,0,1,.433.962.268.268,0,0,0,.048.168,3.812,3.812,0,0,1-.012,1.732,7.121,7.121,0,0,1-1.2,2.477,13.137,13.137,0,0,1-2.393,2.417,17.462,17.462,0,0,1-6.686,3.2,11.258,11.258,0,0,1-4.257.168,5.225,5.225,0,0,1-.577-.132.268.268,0,0,0-.168-.048,1.7,1.7,0,0,1-.529-.168.066.066,0,0,0-.072-.048.325.325,0,0,1,.048-.4q.585-.155,1.178-.277a.268.268,0,0,0,.168-.048.111.111,0,0,1,.1-.024,3656.752,3656.752,0,0,1,.337-.1.528.528,0,0,0,.24-.072.069.069,0,0,1,.072-.024.529.529,0,0,0,.241-.072q.3-.122.625-.216a.241.241,0,0,0,.192-.072.761.761,0,0,1,.144-.048.11.11,0,0,0,.12-.048,39.049,39.049,0,0,0,3.752-1.659A.066.066,0,0,0,392.9,135a.845.845,0,0,1,.24-.12.066.066,0,0,0,.072-.048q.763-.436,1.515-.89a.066.066,0,0,0,.072-.048q.317-.225.649-.433a.066.066,0,0,0,.072-.048.066.066,0,0,1,.072-.048.114.114,0,0,0,.1-.072.066.066,0,0,1,.072-.048.114.114,0,0,0,.1-.072,2.925,2.925,0,0,1,.361-.265.181.181,0,0,0,.12-.1.114.114,0,0,1,.1-.072,347028210666.358,347028210666.358,0,0,1,.24-.192.021.021,0,0,1,.024-.024.181.181,0,0,0,.12-.1.021.021,0,0,1,.024-.024.181.181,0,0,0,.12-.1.021.021,0,0,1,.024-.024.367.367,0,0,0,.168-.144.021.021,0,0,1,.024-.024.485.485,0,0,0,.192-.168.276.276,0,0,1,.1-.1,1.464,1.464,0,0,0,.385-.385,2.871,2.871,0,0,1,.313-.313.066.066,0,0,0,.048-.072.617.617,0,0,1,.144-.144.066.066,0,0,0,.048-.072.157.157,0,0,1,.072-.072.066.066,0,0,0,.048-.072,1.067,1.067,0,0,1,.144-.168.066.066,0,0,0,.048-.072.4.4,0,0,1,.12-.144.066.066,0,0,0,.048-.072.114.114,0,0,1,.072-.1,533.168,533.168,0,0,1,.144-.216.066.066,0,0,0,.048-.072,1.29,1.29,0,0,1,.168-.289.066.066,0,0,0,.048-.072,9.157,9.157,0,0,0,.505-1.154.268.268,0,0,0,.048-.168,7.645,7.645,0,0,0,.18-1.371A.307.307,0,0,1,400.648,126.869Z" transform="translate(-385.57 -126.681)" fill="#f0861c" fill-rule="evenodd"/>
    </g>
    <g id="组_239" data-name="组 239" transform="translate(77.663 2.554)">
      <path id="路径_433" data-name="路径 433" d="M3249.5,126.5a.169.169,0,0,1,.072.048A.057.057,0,0,1,3249.5,126.5Z" transform="translate(-3249.5 -126.5)" fill="#ffc18d" fill-rule="evenodd"/>
    </g>
    <g id="组_240" data-name="组 240" transform="translate(71.338 2.578)">
      <path id="路径_434" data-name="路径 434" d="M2986.572,127.495a.066.066,0,0,1-.072.048A.066.066,0,0,1,2986.572,127.495Z" transform="translate(-2986.5 -127.495)" fill="#fcc797" fill-rule="evenodd"/>
    </g>
    <g id="组_241" data-name="组 241" transform="translate(71.265 2.626)">
      <path id="路径_435" data-name="路径 435" d="M2983.572,129.495a.066.066,0,0,1-.072.048A.066.066,0,0,1,2983.572,129.495Z" transform="translate(-2983.5 -129.495)" fill="#fcc28e" fill-rule="evenodd"/>
    </g>
    <g id="组_242" data-name="组 242" transform="translate(71.193 2.674)">
      <path id="路径_436" data-name="路径 436" d="M2980.572,131.495a.065.065,0,0,1-.072.048A.065.065,0,0,1,2980.572,131.495Z" transform="translate(-2980.5 -131.495)" fill="#fcc490" fill-rule="evenodd"/>
    </g>
    <g id="组_243" data-name="组 243" transform="translate(71.097 2.723)">
      <path id="路径_437" data-name="路径 437" d="M2976.6,133.5a.115.115,0,0,1-.1.072A.115.115,0,0,1,2976.6,133.5Z" transform="translate(-2976.5 -133.5)" fill="#fcc38e" fill-rule="evenodd"/>
    </g>
    <g id="组_244" data-name="组 244" transform="translate(23.863 2.747)">
      <path id="路径_438" data-name="路径 438" d="M1012.5,134.5a.114.114,0,0,1,.072.1A.114.114,0,0,1,1012.5,134.5Z" transform="translate(-1012.5 -134.5)" fill="#fecb9e" fill-rule="evenodd"/>
    </g>
    <g id="组_245" data-name="组 245" transform="translate(24.007 2.915)">
      <path id="路径_439" data-name="路径 439" d="M1018.5,141.5a.066.066,0,0,1,.048.072A.066.066,0,0,1,1018.5,141.5Z" transform="translate(-1018.495 -141.5)" fill="#fdd2aa" fill-rule="evenodd"/>
    </g>
    <g id="组_246" data-name="组 246" transform="translate(70.784 2.939)">
      <path id="路径_440" data-name="路径 440" d="M2963.62,142.5a.18.18,0,0,1-.12.1A.18.18,0,0,1,2963.62,142.5Z" transform="translate(-2963.5 -142.5)" fill="#fbb474" fill-rule="evenodd"/>
    </g>
    <g id="组_247" data-name="组 247" transform="translate(70.64 3.059)">
      <path id="路径_441" data-name="路径 441" d="M2957.62,147.5a.181.181,0,0,1-.12.1A.181.181,0,0,1,2957.62,147.5Z" transform="translate(-2957.5 -147.5)" fill="#fbb474" fill-rule="evenodd"/>
    </g>
    <g id="组_248" data-name="组 248" transform="translate(24.175 3.156)">
      <path id="路径_442" data-name="路径 442" d="M1025.5,151.5a.114.114,0,0,1,.072.1A.114.114,0,0,1,1025.5,151.5Z" transform="translate(-1025.5 -151.5)" fill="#fcc28c" fill-rule="evenodd"/>
    </g>
    <g id="组_249" data-name="组 249" transform="translate(70.327 3.204)">
      <path id="路径_443" data-name="路径 443" d="M2944.765,153.5a.946.946,0,0,1-.265.241A.933.933,0,0,1,2944.765,153.5Z" transform="translate(-2944.5 -153.5)" fill="#fcbb81" fill-rule="evenodd"/>
    </g>
    <g id="组_250" data-name="组 250" transform="translate(70.159 3.54)">
      <path id="路径_444" data-name="路径 444" d="M2937.572,167.5a.114.114,0,0,1-.072.1A.114.114,0,0,1,2937.572,167.5Z" transform="translate(-2937.5 -167.5)" fill="#fdcb9d" fill-rule="evenodd"/>
    </g>
    <g id="组_251" data-name="组 251" transform="translate(78.913 3.589)">
      <path id="路径_445" data-name="路径 445" d="M3301.5,169.5a.065.065,0,0,1,.048.072A.065.065,0,0,1,3301.5,169.5Z" transform="translate(-3301.495 -169.5)" fill="#fdcea3" fill-rule="evenodd"/>
    </g>
    <g id="组_252" data-name="组 252" transform="translate(79.058 3.757)">
      <path id="路径_446" data-name="路径 446" d="M3307.5,176.5a.114.114,0,0,1,.072.1A.114.114,0,0,1,3307.5,176.5Z" transform="translate(-3307.5 -176.5)" fill="#feca9c" fill-rule="evenodd"/>
    </g>
    <g id="组_253" data-name="组 253" transform="translate(69.87 3.901)">
      <path id="路径_447" data-name="路径 447" d="M2925.543,182.5a.065.065,0,0,1-.048.072A.065.065,0,0,1,2925.543,182.5Z" transform="translate(-2925.495 -182.5)" fill="#fdd3ac" fill-rule="evenodd"/>
    </g>
    <g id="组_254" data-name="组 254" transform="translate(23.093 4.07)">
      <path id="路径_448" data-name="路径 448" d="M980.54,189.5a.268.268,0,0,1-.048.168A.268.268,0,0,1,980.54,189.5Z" transform="translate(-980.492 -189.5)" fill="#fbb97d" fill-rule="evenodd"/>
    </g>
    <g id="组_255" data-name="组 255" transform="translate(75.498 4.141)">
      <path id="路径_449" data-name="路径 449" d="M3159.5,192.492a.267.267,0,0,1,.168.048A.267.267,0,0,1,3159.5,192.492Z" transform="translate(-3159.5 -192.492)" fill="#fbbd84" fill-rule="evenodd"/>
    </g>
    <g id="组_256" data-name="组 256" transform="translate(79.442 4.262)">
      <path id="路径_450" data-name="路径 450" d="M3323.5,197.5a.065.065,0,0,1,.048.072A.065.065,0,0,1,3323.5,197.5Z" transform="translate(-3323.495 -197.5)" fill="#fcc998" fill-rule="evenodd"/>
    </g>
    <g id="组_257" data-name="组 257" transform="translate(24.68 4.214)">
      <path id="路径_451" data-name="路径 451" d="M1046.492,195.5a.269.269,0,0,1,.048.168A.269.269,0,0,1,1046.492,195.5Z" transform="translate(-1046.492 -195.5)" fill="#fabb80" fill-rule="evenodd"/>
    </g>
    <g id="组_258" data-name="组 258" transform="translate(69.558 4.334)">
      <path id="路径_452" data-name="路径 452" d="M2912.543,200.5a.065.065,0,0,1-.048.072A.065.065,0,0,1,2912.543,200.5Z" transform="translate(-2912.495 -200.5)" fill="#fdd0a7" fill-rule="evenodd"/>
    </g>
    <g id="组_259" data-name="组 259" transform="translate(79.49 4.334)">
      <path id="路径_453" data-name="路径 453" d="M3325.495,200.5a.065.065,0,0,1,.048.072A.065.065,0,0,1,3325.495,200.5Z" transform="translate(-3325.495 -200.5)" fill="#fcc797" fill-rule="evenodd"/>
    </g>
    <g id="组_260" data-name="组 260" transform="translate(79.538 4.406)">
      <path id="路径_454" data-name="路径 454" d="M3327.5,203.5a.065.065,0,0,1,.048.072A.065.065,0,0,1,3327.5,203.5Z" transform="translate(-3327.495 -203.5)" fill="#fdcda1" fill-rule="evenodd"/>
    </g>
    <g id="组_261" data-name="组 261" transform="translate(69.437 4.526)">
      <path id="路径_455" data-name="路径 455" d="M2907.543,208.5a.065.065,0,0,1-.048.072A.065.065,0,0,1,2907.543,208.5Z" transform="translate(-2907.495 -208.5)" fill="#fccc9f" fill-rule="evenodd"/>
    </g>
    <g id="组_262" data-name="组 262" transform="translate(76.484 4.574)">
      <path id="路径_456" data-name="路径 456" d="M3200.5,210.495a.065.065,0,0,1,.072.048A.065.065,0,0,1,3200.5,210.495Z" transform="translate(-3200.5 -210.495)" fill="#fcca9b" fill-rule="evenodd"/>
    </g>
    <g id="组_263" data-name="组 263" transform="translate(76.556 4.623)">
      <path id="路径_457" data-name="路径 457" d="M3203.5,212.495a.066.066,0,0,1,.072.048A.066.066,0,0,1,3203.5,212.495Z" transform="translate(-3203.5 -212.495)" fill="#fcca9c" fill-rule="evenodd"/>
    </g>
    <g id="组_264" data-name="组 264" transform="translate(79.659 4.599)">
      <path id="路径_458" data-name="路径 458" d="M3332.5,211.5a.065.065,0,0,1,.048.072A.065.065,0,0,1,3332.5,211.5Z" transform="translate(-3332.495 -211.5)" fill="#fdd5b0" fill-rule="evenodd"/>
    </g>
    <g id="组_265" data-name="组 265" transform="translate(69.365 4.647)">
      <path id="路径_459" data-name="路径 459" d="M2904.543,213.5a.066.066,0,0,1-.048.072A.066.066,0,0,1,2904.543,213.5Z" transform="translate(-2904.495 -213.5)" fill="#fdd1a8" fill-rule="evenodd"/>
    </g>
    <g id="组_266" data-name="组 266" transform="translate(76.629 4.671)">
      <path id="路径_460" data-name="路径 460" d="M3206.5,214.495a.065.065,0,0,1,.072.048A.065.065,0,0,1,3206.5,214.495Z" transform="translate(-3206.5 -214.495)" fill="#fcc18a" fill-rule="evenodd"/>
    </g>
    <g id="组_267" data-name="组 267" transform="translate(76.869 4.863)">
      <path id="路径_461" data-name="路径 461" d="M3216.5,222.495a.065.065,0,0,1,.072.048A.065.065,0,0,1,3216.5,222.495Z" transform="translate(-3216.5 -222.495)" fill="#fdcfa5" fill-rule="evenodd"/>
    </g>
    <g id="组_268" data-name="组 268" transform="translate(85.551 4.839)">
      <path id="路径_462" data-name="路径 462" d="M3577.524,221.5l2.212.048q-1.119.012-2.237-.024A.026.026,0,0,1,3577.524,221.5Z" transform="translate(-3577.5 -221.5)" fill="#b8e5e7" fill-rule="evenodd"/>
    </g>
    <g id="组_269" data-name="组 269" transform="translate(49.291 5.005)">
      <path id="路径_463" data-name="路径 463" d="M2070.279,228.4q1-.012,2,.036a.3.3,0,0,1,.252.108,1,1,0,0,1,.072.337q-.02.625.012,1.251a.893.893,0,0,1-.12.577.646.646,0,0,1-.336.084q-.987.029-1.972-.024a.254.254,0,0,1-.325-.2,4.1,4.1,0,0,1-.048-.457q-.016-.722.024-1.443a.3.3,0,0,1,.108-.18A1.4,1.4,0,0,1,2070.279,228.4Z" transform="translate(-2069.806 -228.403)" fill="#11a1aa" fill-rule="evenodd"/>
    </g>
    <g id="组_270" data-name="组 270" transform="translate(28.992 5.007)">
      <path id="路径_464" data-name="路径 464" d="M1226.182,228.5q.986.033,1.972.012a.351.351,0,0,1,.373.373q.024.842,0,1.684a.335.335,0,0,1-.229.3,18.193,18.193,0,0,1-2.213,0,.531.531,0,0,1-.216-.06,1.283,1.283,0,0,1-.108-.553q-.019-.758.024-1.515A.406.406,0,0,1,1226.182,228.5Z" transform="translate(-1225.755 -228.497)" fill="#15a2aa" fill-rule="evenodd"/>
    </g>
    <g id="组_271" data-name="组 271" transform="translate(88.702 5.368)">
      <path id="路径_465" data-name="路径 465" d="M3719.3,243.692v1.154a.368.368,0,0,1-.168.18l-2.116.024a.291.291,0,0,0-.181.156q-.012,3.271-.024,6.542a.3.3,0,0,1-.108.18q-3.075.06-6.157.024a.221.221,0,0,1-.156-.132q-.024-.505,0-1.01a.43.43,0,0,1,.108-.132q1.417-.048,2.838-.048a.369.369,0,0,0,.156-.156q.024-2.621,0-5.243a.257.257,0,0,0-.181-.18l-4.642-.024a.2.2,0,0,1-.156-.156q-.024-.6,0-1.2a.291.291,0,0,1,.181-.156q5.206-.024,10.414,0A.308.308,0,0,1,3719.3,243.692Z" transform="translate(-3708.498 -243.5)" fill="#0ca1aa" fill-rule="evenodd"/>
    </g>
    <g id="组_272" data-name="组 272" transform="translate(56.186 5.368)">
      <path id="路径_466" data-name="路径 466" d="M2356.5,243.524a.026.026,0,0,1,.024-.024.117.117,0,0,1,.024.1Z" transform="translate(-2356.5 -243.5)" fill="#e0f4f4" fill-rule="evenodd"/>
    </g>
    <g id="组_273" data-name="组 273" transform="translate(22.54 5.392)">
      <path id="路径_467" data-name="路径 467" d="M957.543,244.5a.066.066,0,0,1-.048.072A.066.066,0,0,1,957.543,244.5Z" transform="translate(-957.495 -244.5)" fill="#fdd4af" fill-rule="evenodd"/>
    </g>
    <g id="组_274" data-name="组 274" transform="translate(77.663 5.777)">
      <path id="路径_468" data-name="路径 468" d="M3249.5,260.5a.057.057,0,0,1,.048.072A.17.17,0,0,1,3249.5,260.5Z" transform="translate(-3249.5 -260.5)" fill="#ffc28f" fill-rule="evenodd"/>
    </g>
    <g id="组_275" data-name="组 275" transform="translate(22.323 5.753)">
      <path id="路径_469" data-name="路径 469" d="M948.543,259.5a.066.066,0,0,1-.048.072A.066.066,0,0,1,948.543,259.5Z" transform="translate(-948.495 -259.5)" fill="#fcc593" fill-rule="evenodd"/>
    </g>
    <g id="组_276" data-name="组 276" transform="translate(22.275 5.825)">
      <path id="路径_470" data-name="路径 470" d="M946.543,262.5a.066.066,0,0,1-.048.072A.066.066,0,0,1,946.543,262.5Z" transform="translate(-946.495 -262.5)" fill="#fcc898" fill-rule="evenodd"/>
    </g>
    <g id="组_277" data-name="组 277" transform="translate(22.227 5.897)">
      <path id="路径_471" data-name="路径 471" d="M944.543,265.5a.065.065,0,0,1-.048.072A.065.065,0,0,1,944.543,265.5Z" transform="translate(-944.495 -265.5)" fill="#fcc795" fill-rule="evenodd"/>
    </g>
    <g id="组_278" data-name="组 278" transform="translate(77.759 5.945)">
      <path id="路径_472" data-name="路径 472" d="M3253.5,267.5a.057.057,0,0,1,.048.072A.168.168,0,0,1,3253.5,267.5Z" transform="translate(-3253.5 -267.5)" fill="#ffc391" fill-rule="evenodd"/>
    </g>
    <g id="组_279" data-name="组 279" transform="translate(22.179 5.969)">
      <path id="路径_473" data-name="路径 473" d="M942.543,268.5a.066.066,0,0,1-.048.072A.066.066,0,0,1,942.543,268.5Z" transform="translate(-942.495 -268.5)" fill="#fbc18b" fill-rule="evenodd"/>
    </g>
    <g id="组_280" data-name="组 280" transform="translate(80.26 5.945)">
      <path id="路径_474" data-name="路径 474" d="M3357.492,267.5a.268.268,0,0,1,.048.168A.268.268,0,0,1,3357.492,267.5Z" transform="translate(-3357.492 -267.5)" fill="#fbb97c" fill-rule="evenodd"/>
    </g>
    <g id="组_281" data-name="组 281" transform="translate(22.059 6.138)">
      <path id="路径_475" data-name="路径 475" d="M937.543,275.5a.066.066,0,0,1-.048.072A.066.066,0,0,1,937.543,275.5Z" transform="translate(-937.495 -275.5)" fill="#fcc18a" fill-rule="evenodd"/>
    </g>
    <g id="组_282" data-name="组 282" transform="translate(80.308 6.114)">
      <path id="路径_476" data-name="路径 476" d="M3359.492,274.5a.268.268,0,0,1,.048.168A.268.268,0,0,1,3359.492,274.5Z" transform="translate(-3359.492 -274.5)" fill="#fbc08a" fill-rule="evenodd"/>
    </g>
    <g id="组_283" data-name="组 283" transform="translate(21.89 6.354)">
      <path id="路径_477" data-name="路径 477" d="M930.543,284.5a.065.065,0,0,1-.048.072A.065.065,0,0,1,930.543,284.5Z" transform="translate(-930.495 -284.5)" fill="#fdd3ab" fill-rule="evenodd"/>
    </g>
    <g id="组_284" data-name="组 284" transform="translate(21.698 6.595)">
      <path id="路径_478" data-name="路径 478" d="M922.543,294.5a.066.066,0,0,1-.048.072A.066.066,0,0,1,922.543,294.5Z" transform="translate(-922.495 -294.5)" fill="#fdd0a7" fill-rule="evenodd"/>
    </g>
    <g id="组_285" data-name="组 285" transform="translate(72.612 6.595)">
      <path id="路径_479" data-name="路径 479" d="M3044.935,294.5a.069.069,0,0,1,.024.072q-2.731-.012-5.459.024a.132.132,0,0,1,.072-.036Q3042.266,294.566,3044.935,294.5Z" transform="translate(-3039.5 -294.5)" fill="#f29332" fill-rule="evenodd"/>
    </g>
    <g id="组_286" data-name="组 286" transform="translate(21.578 6.739)">
      <path id="路径_480" data-name="路径 480" d="M917.543,300.5a.066.066,0,0,1-.048.072A.066.066,0,0,1,917.543,300.5Z" transform="translate(-917.495 -300.5)" fill="#fdca9c" fill-rule="evenodd"/>
    </g>
    <g id="组_287" data-name="组 287" transform="translate(21.385 6.956)">
      <path id="路径_481" data-name="路径 481" d="M909.543,309.5a.066.066,0,0,1-.048.072A.066.066,0,0,1,909.543,309.5Z" transform="translate(-909.495 -309.5)" fill="#fdcea2" fill-rule="evenodd"/>
    </g>
    <g id="组_288" data-name="组 288" transform="translate(39.399 7.075)">
      <path id="路径_482" data-name="路径 482" d="M1658.5,314.506q1.028-.042,2.068-.012a.079.079,0,0,1,.048.036Q1659.559,314.5,1658.5,314.506Z" transform="translate(-1658.5 -314.481)" fill="#6ac7cb" fill-rule="evenodd"/>
    </g>
    <g id="组_289" data-name="组 289" transform="translate(54.214 7.124)">
      <path id="路径_483" data-name="路径 483" d="M2286.285,316.548q-5.893-.048-11.785,0a.08.08,0,0,1,.048-.036q5.844-.024,11.688,0A.081.081,0,0,1,2286.285,316.548Z" transform="translate(-2274.5 -316.5)" fill="#2cb0b3" fill-rule="evenodd"/>
    </g>
    <g id="组_290" data-name="组 290" transform="translate(54.092 7.148)">
      <path id="路径_484" data-name="路径 484" d="M2281.337,317.525a.054.054,0,0,1,.036.024.483.483,0,0,1,0,.216,18.6,18.6,0,0,1-.541,1.78q-.446.033-.89.084a.08.08,0,0,0-.048.036h-.1a2.731,2.731,0,0,0-.361.012.054.054,0,0,0-.024.036h-.12a3.627,3.627,0,0,0-.529.036.055.055,0,0,0-.024.036,15.7,15.7,0,0,0-3.607.854,13.961,13.961,0,0,0-2.622,1.467,1.443,1.443,0,0,0-.313.313,63.7,63.7,0,0,0,9.163-.4q.409,0,.818-.024h.072q-.016.156-.024.313a2.975,2.975,0,0,1-.132.457l-.457,1.154a.431.431,0,0,1-.229.216q-5.915.036-11.833.024a.2.2,0,0,1-.108-.144q-.008-.446-.036-.89a.994.994,0,0,1,.2-.673,13.822,13.822,0,0,1,5.231-3.379l-5.291-.024a.288.288,0,0,1-.108-.2,6.3,6.3,0,0,1,0-1.2.132.132,0,0,1,.084-.12Q2275.444,317.477,2281.337,317.525Z" transform="translate(-2269.431 -317.501)" fill="#06a0a9" fill-rule="evenodd"/>
    </g>
    <g id="组_291" data-name="组 291" transform="translate(20.688 7.34)">
      <path id="路径_485" data-name="路径 485" d="M880.885,325.5a1.463,1.463,0,0,1-.385.385A4.365,4.365,0,0,1,880.885,325.5Z" transform="translate(-880.5 -325.5)" fill="#fcb779" fill-rule="evenodd"/>
    </g>
    <g id="组_292" data-name="组 292" transform="translate(20.4 7.821)">
      <path id="路径_486" data-name="路径 486" d="M868.692,345.5a.485.485,0,0,1-.192.168A.485.485,0,0,1,868.692,345.5Z" transform="translate(-868.5 -345.5)" fill="#fbb97d" fill-rule="evenodd"/>
    </g>
    <g id="组_293" data-name="组 293" transform="translate(20.207 8.014)">
      <path id="路径_487" data-name="路径 487" d="M860.668,353.5a.367.367,0,0,1-.168.144A.367.367,0,0,1,860.668,353.5Z" transform="translate(-860.5 -353.5)" fill="#fcbb80" fill-rule="evenodd"/>
    </g>
    <g id="组_294" data-name="组 294" transform="translate(20.063 8.182)">
      <path id="路径_488" data-name="路径 488" d="M854.62,360.5a.181.181,0,0,1-.12.1A.181.181,0,0,1,854.62,360.5Z" transform="translate(-854.5 -360.5)" fill="#fbb779" fill-rule="evenodd"/>
    </g>
    <g id="组_295" data-name="组 295" transform="translate(19.919 8.302)">
      <path id="路径_489" data-name="路径 489" d="M848.62,365.5a.181.181,0,0,1-.12.1A.181.181,0,0,1,848.62,365.5Z" transform="translate(-848.5 -365.5)" fill="#fbb87b" fill-rule="evenodd"/>
    </g>
    <g id="组_296" data-name="组 296" transform="translate(41.443 8.35)">
      <path id="路径_490" data-name="路径 490" d="M1743.5,367.5q.732.035,1.467.024-.361.024-.734.024A5.461,5.461,0,0,1,1743.5,367.5Z" transform="translate(-1743.5 -367.5)" fill="#70cacc" fill-rule="evenodd"/>
    </g>
    <g id="组_297" data-name="组 297" transform="translate(28.577 8.373)">
      <path id="路径_491" data-name="路径 491" d="M1209.727,368.439q1.07-.006,2.14.012a.277.277,0,0,1,.228.18.724.724,0,0,1,0,.265q-.416,2.318-.794,4.642a.42.42,0,0,1-.3.373,20.051,20.051,0,0,1-2.309,0,.329.329,0,0,1-.192-.277q.414-2.379.806-4.762A.436.436,0,0,1,1209.727,368.439Z" transform="translate(-1208.5 -368.437)" fill="#0ca1a9" fill-rule="evenodd"/>
    </g>
    <g id="组_298" data-name="组 298" transform="translate(48.899 8.373)">
      <path id="路径_492" data-name="路径 492" d="M2054.772,368.439q1.035-.006,2.068.012a.276.276,0,0,1,.229.18.867.867,0,0,1,0,.289q-.4,2.282-.77,4.57a.474.474,0,0,1-.3.421,20.21,20.21,0,0,1-2.309,0,.249.249,0,0,1-.18-.156.73.73,0,0,1,0-.265q.417-2.342.794-4.69A.418.418,0,0,1,2054.772,368.439Z" transform="translate(-2053.498 -368.437)" fill="#0ca1a9" fill-rule="evenodd"/>
    </g>
    <g id="组_299" data-name="组 299" transform="translate(19.774 8.423)">
      <path id="路径_493" data-name="路径 493" d="M842.62,370.5a.181.181,0,0,1-.12.1A.181.181,0,0,1,842.62,370.5Z" transform="translate(-842.5 -370.5)" fill="#fab06d" fill-rule="evenodd"/>
    </g>
    <g id="组_300" data-name="组 300" transform="translate(47.095 8.423)">
      <path id="路径_494" data-name="路径 494" d="M1978.5,370.5a.094.094,0,0,1,.048.084.148.148,0,0,1-.024.084A.37.37,0,0,0,1978.5,370.5Z" transform="translate(-1978.5 -370.5)" fill="#bee7e8" fill-rule="evenodd"/>
    </g>
    <g id="组_301" data-name="组 301" transform="translate(19.654 8.519)">
      <path id="路径_495" data-name="路径 495" d="M837.62,374.5a.181.181,0,0,1-.12.1A.181.181,0,0,1,837.62,374.5Z" transform="translate(-837.5 -374.5)" fill="#fab16f" fill-rule="evenodd"/>
    </g>
    <g id="组_302" data-name="组 302" transform="translate(72.348 8.711)">
      <path id="路径_496" data-name="路径 496" d="M3028.5,382.5a.115.115,0,0,1,.1.072A.115.115,0,0,1,3028.5,382.5Z" transform="translate(-3028.5 -382.5)" fill="#fed0a7" fill-rule="evenodd"/>
    </g>
    <g id="组_303" data-name="组 303" transform="translate(19.438 8.687)">
      <path id="路径_497" data-name="路径 497" d="M828.62,381.5a.181.181,0,0,1-.12.1A.181.181,0,0,1,828.62,381.5Z" transform="translate(-828.5 -381.5)" fill="#fab474" fill-rule="evenodd"/>
    </g>
    <g id="组_304" data-name="组 304" transform="translate(72.444 8.783)">
      <path id="路径_498" data-name="路径 498" d="M3032.5,385.5a.114.114,0,0,1,.1.072A.114.114,0,0,1,3032.5,385.5Z" transform="translate(-3032.5 -385.5)" fill="#fcc18c" fill-rule="evenodd"/>
    </g>
    <g id="组_305" data-name="组 305" transform="translate(70.977 8.759)">
      <path id="路径_499" data-name="路径 499" d="M2971.492,384.5a.268.268,0,0,1,.048.168A.268.268,0,0,1,2971.492,384.5Z" transform="translate(-2971.492 -384.5)" fill="#fbbc82" fill-rule="evenodd"/>
    </g>
    <g id="组_306" data-name="组 306" transform="translate(72.588 8.879)">
      <path id="路径_500" data-name="路径 500" d="M3038.5,389.492a.268.268,0,0,1,.168.048A.268.268,0,0,1,3038.5,389.492Z" transform="translate(-3038.5 -389.492)" fill="#fbc18b" fill-rule="evenodd"/>
    </g>
    <g id="组_307" data-name="组 307" transform="translate(72.781 8.831)">
      <path id="路径_501" data-name="路径 501" d="M3054.172,387.5v.12q-3.842.012-7.672-.024h7.648A.111.111,0,0,1,3054.172,387.5Z" transform="translate(-3046.5 -387.5)" fill="#fdebda" fill-rule="evenodd"/>
    </g>
    <g id="组_308" data-name="组 308" transform="translate(18.981 9.048)">
      <path id="路径_502" data-name="路径 502" d="M809.6,396.5a.114.114,0,0,1-.1.072A.114.114,0,0,1,809.6,396.5Z" transform="translate(-809.5 -396.5)" fill="#fcc18b" fill-rule="evenodd"/>
    </g>
    <g id="组_309" data-name="组 309" transform="translate(18.812 9.168)">
      <path id="路径_503" data-name="路径 503" d="M802.6,401.5a.114.114,0,0,1-.1.072A.114.114,0,0,1,802.6,401.5Z" transform="translate(-802.5 -401.5)" fill="#fcc28e" fill-rule="evenodd"/>
    </g>
    <g id="组_310" data-name="组 310" transform="translate(64.555 9.192)">
      <path id="路径_504" data-name="路径 504" d="M2705.438,402.5a6.822,6.822,0,0,1-.938.12.079.079,0,0,1,.048-.036Q2704.993,402.533,2705.438,402.5Z" transform="translate(-2704.5 -402.5)" fill="#6ec2c5" fill-rule="evenodd"/>
    </g>
    <g id="组_311" data-name="组 311" transform="translate(18.668 9.288)">
      <path id="路径_505" data-name="路径 505" d="M796.572,406.495a.066.066,0,0,1-.072.048A.066.066,0,0,1,796.572,406.495Z" transform="translate(-796.5 -406.495)" fill="#fcc694" fill-rule="evenodd"/>
    </g>
    <g id="组_312" data-name="组 312" transform="translate(64.074 9.311)">
      <path id="路径_506" data-name="路径 506" d="M2684.885,407.439a3.353,3.353,0,0,1-.385.048.054.054,0,0,1,.024-.036A2.714,2.714,0,0,1,2684.885,407.439Z" transform="translate(-2684.5 -407.438)" fill="#81cacc" fill-rule="evenodd"/>
    </g>
    <g id="组_313" data-name="组 313" transform="translate(63.401 9.36)">
      <path id="路径_507" data-name="路径 507" d="M2657.053,409.5q-.271.044-.553.072a.054.054,0,0,1,.024-.036A3.632,3.632,0,0,1,2657.053,409.5Z" transform="translate(-2656.5 -409.498)" fill="#80cacc" fill-rule="evenodd"/>
    </g>
    <g id="组_314" data-name="组 314" transform="translate(71.361 9.697)">
      <path id="路径_508" data-name="路径 508" d="M2987.495,423.5a.065.065,0,0,1,.048.072A.065.065,0,0,1,2987.495,423.5Z" transform="translate(-2987.495 -423.5)" fill="#fdd3ac" fill-rule="evenodd"/>
    </g>
    <g id="组_315" data-name="组 315" transform="translate(17.946 9.769)">
      <path id="路径_509" data-name="路径 509" d="M766.572,426.495a.066.066,0,0,1-.072.048A.066.066,0,0,1,766.572,426.495Z" transform="translate(-766.5 -426.495)" fill="#fcc593" fill-rule="evenodd"/>
    </g>
    <g id="组_316" data-name="组 316" transform="translate(71.434 9.817)">
      <path id="路径_510" data-name="路径 510" d="M2990.5,428.5a.066.066,0,0,1,.048.072A.066.066,0,0,1,2990.5,428.5Z" transform="translate(-2990.495 -428.5)" fill="#fcc999" fill-rule="evenodd"/>
    </g>
    <g id="组_317" data-name="组 317" transform="translate(71.482 9.89)">
      <path id="路径_511" data-name="路径 511" d="M2992.495,431.5a.066.066,0,0,1,.048.072A.066.066,0,0,1,2992.495,431.5Z" transform="translate(-2992.495 -431.5)" fill="#fcc999" fill-rule="evenodd"/>
    </g>
    <g id="组_318" data-name="组 318" transform="translate(77.567 9.938)">
      <path id="路径_512" data-name="路径 512" d="M3245.5,433.526q1.293-.048,2.6,0a.026.026,0,0,1-.024.024Q3246.793,433.515,3245.5,433.526Z" transform="translate(-3245.5 -433.503)" fill="#f6b06a" fill-rule="evenodd"/>
    </g>
    <g id="组_319" data-name="组 319" transform="translate(34.252 9.96)">
      <path id="路径_513" data-name="路径 513" d="M1444.5,434.439a1.746,1.746,0,0,1,.289.012.079.079,0,0,1,.072.06A2.321,2.321,0,0,0,1444.5,434.439Z" transform="translate(-1444.5 -434.438)" fill="#87cdcf" fill-rule="evenodd"/>
    </g>
    <g id="组_320" data-name="组 320" transform="translate(77.518 9.962)">
      <path id="路径_514" data-name="路径 514" d="M3243.543,434.5a.066.066,0,0,1-.048.072A.066.066,0,0,1,3243.543,434.5Z" transform="translate(-3243.495 -434.5)" fill="#fcca9b" fill-rule="evenodd"/>
    </g>
    <g id="组_321" data-name="组 321" transform="translate(71.698 10.178)">
      <path id="路径_515" data-name="路径 515" d="M3001.495,443.5a.066.066,0,0,1,.048.072A.066.066,0,0,1,3001.495,443.5Z" transform="translate(-3001.495 -443.5)" fill="#fdc796" fill-rule="evenodd"/>
    </g>
    <g id="组_322" data-name="组 322" transform="translate(77.35 10.178)">
      <path id="路径_516" data-name="路径 516" d="M3236.543,443.5a.066.066,0,0,1-.048.072A.066.066,0,0,1,3236.543,443.5Z" transform="translate(-3236.495 -443.5)" fill="#fdcfa6" fill-rule="evenodd"/>
    </g>
    <g id="组_323" data-name="组 323" transform="translate(76.917 10.371)">
      <path id="路径_517" data-name="路径 517" d="M3218.813,451.5a.969.969,0,0,1-.313.313A2.873,2.873,0,0,1,3218.813,451.5Z" transform="translate(-3218.5 -451.5)" fill="#fdc28d" fill-rule="evenodd"/>
    </g>
    <g id="组_324" data-name="组 324" transform="translate(16.359 10.707)">
      <path id="路径_518" data-name="路径 518" d="M700.572,465.495a.066.066,0,0,1-.072.048A.066.066,0,0,1,700.572,465.495Z" transform="translate(-700.5 -465.495)" fill="#fcc694" fill-rule="evenodd"/>
    </g>
    <g id="组_325" data-name="组 325" transform="translate(69.365 10.876)">
      <path id="路径_519" data-name="路径 519" d="M2904.5,472.5a.057.057,0,0,1,.048.072A.168.168,0,0,1,2904.5,472.5Z" transform="translate(-2904.5 -472.5)" fill="#ffc898" fill-rule="evenodd"/>
    </g>
    <g id="组_326" data-name="组 326" transform="translate(16.046 10.876)">
      <path id="路径_520" data-name="路径 520" d="M687.572,472.495a.066.066,0,0,1-.072.048A.066.066,0,0,1,687.572,472.495Z" transform="translate(-687.5 -472.495)" fill="#fcc38f" fill-rule="evenodd"/>
    </g>
    <g id="组_327" data-name="组 327" transform="translate(69.438 10.996)">
      <path id="路径_521" data-name="路径 521" d="M2907.5,477.5a.057.057,0,0,1,.048.072A.169.169,0,0,1,2907.5,477.5Z" transform="translate(-2907.5 -477.5)" fill="#ffc697" fill-rule="evenodd"/>
    </g>
    <g id="组_328" data-name="组 328" transform="translate(72.588 10.972)">
      <path id="路径_522" data-name="路径 522" d="M3038.5,476.5a.172.172,0,0,1,.072.048A.057.057,0,0,1,3038.5,476.5Z" transform="translate(-3038.5 -476.5)" fill="#ffc696" fill-rule="evenodd"/>
    </g>
    <g id="组_329" data-name="组 329" transform="translate(72.708 11.044)">
      <path id="路径_523" data-name="路径 523" d="M3043.5,479.5a.169.169,0,0,1,.072.048A.057.057,0,0,1,3043.5,479.5Z" transform="translate(-3043.5 -479.5)" fill="#ffc797" fill-rule="evenodd"/>
    </g>
    <g id="组_330" data-name="组 330" transform="translate(76.292 11.068)">
      <path id="路径_524" data-name="路径 524" d="M3192.572,480.495a.065.065,0,0,1-.072.048A.065.065,0,0,1,3192.572,480.495Z" transform="translate(-3192.5 -480.495)" fill="#fcc593" fill-rule="evenodd"/>
    </g>
    <g id="组_331" data-name="组 331" transform="translate(75.522 11.357)">
      <path id="路径_525" data-name="路径 525" d="M3160.692,492.5a.241.241,0,0,1-.192.072A.684.684,0,0,1,3160.692,492.5Z" transform="translate(-3160.5 -492.5)" fill="#fbb779" fill-rule="evenodd"/>
    </g>
    <g id="组_332" data-name="组 332" transform="translate(66.022 11.627)">
      <path id="路径_526" data-name="路径 526" d="M2766.318,503.741q-.409.019-.818.024A2.851,2.851,0,0,1,2766.318,503.741Z" transform="translate(-2765.5 -503.723)" fill="#6fc4c7" fill-rule="evenodd"/>
    </g>
    <g id="组_333" data-name="组 333" transform="translate(66.888 11.645)">
      <path id="路径_527" data-name="路径 527" d="M2801.524,504.5a.447.447,0,0,1-.024.313Q2801.509,504.656,2801.524,504.5Z" transform="translate(-2801.5 -504.5)" fill="#82cdd0" fill-rule="evenodd"/>
    </g>
    <g id="组_334" data-name="组 334" transform="translate(70.544 12.343)">
      <path id="路径_528" data-name="路径 528" d="M2953.5,533.5a.114.114,0,0,1,.1.072A.114.114,0,0,1,2953.5,533.5Z" transform="translate(-2953.5 -533.5)" fill="#fecfa5" fill-rule="evenodd"/>
    </g>
    <g id="组_335" data-name="组 335" transform="translate(70.712 12.487)">
      <path id="路径_529" data-name="路径 529" d="M2960.5,539.5a.114.114,0,0,1,.1.072A.114.114,0,0,1,2960.5,539.5Z" transform="translate(-2960.5 -539.5)" fill="#fdc694" fill-rule="evenodd"/>
    </g>
    <g id="组_336" data-name="组 336" transform="translate(12.174 12.583)">
      <path id="路径_530" data-name="路径 530" d="M526.62,543.5a.11.11,0,0,1-.12.048A.273.273,0,0,1,526.62,543.5Z" transform="translate(-526.5 -543.5)" fill="#fdc28e" fill-rule="evenodd"/>
    </g>
    <g id="组_337" data-name="组 337" transform="translate(70.857 12.607)">
      <path id="路径_531" data-name="路径 531" d="M2966.5,544.495a.065.065,0,0,1,.072.048A.065.065,0,0,1,2966.5,544.495Z" transform="translate(-2966.5 -544.495)" fill="#fdcc9f" fill-rule="evenodd"/>
    </g>
    <g id="组_338" data-name="组 338" transform="translate(11.838 12.679)">
      <path id="路径_532" data-name="路径 532" d="M512.692,547.5a.241.241,0,0,1-.192.072A.688.688,0,0,1,512.692,547.5Z" transform="translate(-512.5 -547.5)" fill="#fcba7f" fill-rule="evenodd"/>
    </g>
    <g id="组_339" data-name="组 339" transform="translate(10.972 12.968)">
      <path id="路径_533" data-name="路径 533" d="M476.741,559.5a.529.529,0,0,1-.241.072A.529.529,0,0,1,476.741,559.5Z" transform="translate(-476.5 -559.5)" fill="#fab677" fill-rule="evenodd"/>
    </g>
    <g id="组_340" data-name="组 340" transform="translate(71.41 12.992)">
      <path id="路径_534" data-name="路径 534" d="M2989.5,560.495a.065.065,0,0,1,.072.048A.065.065,0,0,1,2989.5,560.495Z" transform="translate(-2989.5 -560.495)" fill="#fcc897" fill-rule="evenodd"/>
    </g>
    <g id="组_341" data-name="组 341" transform="translate(10.659 13.064)">
      <path id="路径_535" data-name="路径 535" d="M463.74,563.5a.528.528,0,0,1-.24.072A.528.528,0,0,1,463.74,563.5Z" transform="translate(-463.5 -563.5)" fill="#fab677" fill-rule="evenodd"/>
    </g>
    <g id="组_342" data-name="组 342" transform="translate(10.491 13.136)">
      <path id="路径_536" data-name="路径 536" d="M456.668,566.492a.268.268,0,0,1-.168.048A.268.268,0,0,1,456.668,566.492Z" transform="translate(-456.5 -566.492)" fill="#fab575" fill-rule="evenodd"/>
    </g>
    <g id="组_343" data-name="组 343" transform="translate(71.65 13.136)">
      <path id="路径_537" data-name="路径 537" d="M2999.5,566.495a.065.065,0,0,1,.072.048A.065.065,0,0,1,2999.5,566.495Z" transform="translate(-2999.5 -566.495)" fill="#fdd4af" fill-rule="evenodd"/>
    </g>
    <g id="组_344" data-name="组 344" transform="translate(10.323 13.184)">
      <path id="路径_538" data-name="路径 538" d="M449.668,568.492a.267.267,0,0,1-.168.048A.267.267,0,0,1,449.668,568.492Z" transform="translate(-449.5 -568.492)" fill="#fab677" fill-rule="evenodd"/>
    </g>
    <g id="组_345" data-name="组 345" transform="translate(10.058 13.256)">
      <path id="路径_539" data-name="路径 539" d="M438.668,571.492a.268.268,0,0,1-.168.048A.268.268,0,0,1,438.668,571.492Z" transform="translate(-438.5 -571.492)" fill="#fab576" fill-rule="evenodd"/>
    </g>
    <g id="组_346" data-name="组 346" transform="translate(72.588 13.567)">
      <path id="路径_540" data-name="路径 540" d="M3038.5,584.4a.11.11,0,0,1,.12.048A.274.274,0,0,1,3038.5,584.4Z" transform="translate(-3038.5 -584.397)" fill="#fdc390" fill-rule="evenodd"/>
    </g>
    <g id="组_347" data-name="组 347" transform="translate(72.997 13.689)">
      <path id="路径_541" data-name="路径 541" d="M3055.5,589.492a.268.268,0,0,1,.168.048A.268.268,0,0,1,3055.5,589.492Z" transform="translate(-3055.5 -589.492)" fill="#fabd84" fill-rule="evenodd"/>
    </g>
    <g id="组_348" data-name="组 348" transform="translate(54.238 13.786)">
      <path id="路径_542" data-name="路径 542" d="M2287.333,593.5a.3.3,0,0,1-.168.06q-5.784.024-11.568,0a.212.212,0,0,1-.1-.036Q2281.417,593.536,2287.333,593.5Z" transform="translate(-2275.5 -593.5)" fill="#77c4c6" fill-rule="evenodd"/>
    </g>
    <g id="组_349" data-name="组 349" transform="translate(8.831 13.978)">
      <path id="路径_543" data-name="路径 543" d="M387.5,601.495a.066.066,0,0,1,.072.048A.066.066,0,0,1,387.5,601.495Z" transform="translate(-387.5 -601.495)" fill="#fecfa5" fill-rule="evenodd"/>
    </g>
    <g id="组_350" data-name="组 350" transform="translate(9.433 14.194)">
      <path id="路径_544" data-name="路径 544" d="M412.5,610.492a.268.268,0,0,1,.168.048A.268.268,0,0,1,412.5,610.492Z" transform="translate(-412.5 -610.492)" fill="#fabd84" fill-rule="evenodd"/>
    </g>
    <g id="组_351" data-name="组 351" transform="translate(52.386 15.959)">
      <path id="路径_545" data-name="路径 545" d="M2200.544,683.892a2.448,2.448,0,0,1,2.152.818,2.7,2.7,0,0,1,.481,2.02,2.247,2.247,0,0,1-.168.625q-.2.329-.421.637a3.457,3.457,0,0,0,.481.265l.2.156a.1.1,0,0,1,0,.1,2.778,2.778,0,0,1-.24.457,2.941,2.941,0,0,1-.974-.493l-.084-.012a4.082,4.082,0,0,1-1.167.241,2.421,2.421,0,0,1-.264-4.81Zm.144.7a1.449,1.449,0,0,1,1.5.866,2.412,2.412,0,0,1,0,1.708.887.887,0,0,1-.289.385q-.292-.155-.589-.3a.824.824,0,0,0-.337-.048.685.685,0,0,0-.144.589q.172.065.337.144a1.436,1.436,0,0,1-1.672-.842,2.314,2.314,0,0,1-.048-1.515A1.6,1.6,0,0,1,2200.688,684.589Z" transform="translate(-2198.5 -683.877)" fill="#1ba3ab" fill-rule="evenodd"/>
    </g>
    <g id="组_352" data-name="组 352" transform="translate(71.434 16.026)">
      <path id="路径_546" data-name="路径 546" d="M2993.434,686.68q.474.036.962.024v.7h-1.539v2.333q-.036.775-.024,1.563h-.77q.012-.86-.024-1.708V687.4H2990.5v-.7Q2991.966,686.63,2993.434,686.68Z" transform="translate(-2990.5 -686.66)" fill="#05a0a9" fill-rule="evenodd"/>
    </g>
    <g id="组_353" data-name="组 353" transform="translate(76.917 16.023)">
      <path id="路径_547" data-name="路径 547" d="M3218.5,691.185v-4.618a2.414,2.414,0,0,0,.481-.024,14.5,14.5,0,0,1,2.141.036,1.254,1.254,0,0,1,1.287,1.527,1.093,1.093,0,0,1-.709.878q-.194.063-.385.132a1.589,1.589,0,0,1,.4.337q.5.642.938,1.323a1.11,1.11,0,0,1,.156.409q-.469.006-.938-.012-.489-.694-.95-1.407a1.021,1.021,0,0,0-.757-.493,6.4,6.4,0,0,0-.842-.036q0,.974-.024,1.948Zm.794-3.944q.734-.006,1.467.012a1.036,1.036,0,0,1,.709.277.637.637,0,0,1-.132.806,1.976,1.976,0,0,1-.77.168q-.638.025-1.275-.012Z" transform="translate(-3218.5 -686.52)" fill="#14a2aa" fill-rule="evenodd"/>
    </g>
    <g id="组_354" data-name="组 354" transform="translate(85.551 16.025)">
      <path id="路径_548" data-name="路径 548" d="M3579.664,689.481h-1.347v1.78h-.77q.012-1.113-.024-2.213,0-1.191-.024-2.381a16.25,16.25,0,0,1,2.573.012,1.256,1.256,0,0,1,1.215,1.19,1.365,1.365,0,0,1-1.094,1.551A2.457,2.457,0,0,1,3579.664,689.481Zm-1.154-2.116q.565-.006,1.13.012a1.05,1.05,0,0,1,.686.277.669.669,0,0,1-.421,1.046,2.3,2.3,0,0,1-.409.072q-.578.02-1.154-.012v-.938a1.966,1.966,0,0,0,.024-.433A.232.232,0,0,0,3578.51,687.365Z" transform="translate(-3577.5 -686.622)" fill="#14a2aa" fill-rule="evenodd"/>
    </g>
    <g id="组_355" data-name="组 355" transform="translate(38.702 16.044)">
      <path id="路径_549" data-name="路径 549" d="M1630.077,687.406h-.553q.012.547-.024,1.082v-1.106A3.473,3.473,0,0,1,1630.077,687.406Z" transform="translate(-1629.5 -687.379)" fill="#c5e9eb" fill-rule="evenodd"/>
    </g>
    <g id="组_356" data-name="组 356" transform="translate(38.699 16.07)">
      <path id="路径_550" data-name="路径 550" d="M1629.983,688.5h.265v1.8q1.112.036,2.237.024V688.5h.794v4.594h-.77q.012-.6-.024-1.178v-.89h-2.237q-.036,1.028-.024,2.068a1.369,1.369,0,0,0-.361.024h-.433q-.034-1.767-.024-3.535.036-.535.024-1.082Z" transform="translate(-1629.404 -688.5)" fill="#06a0a9" fill-rule="evenodd"/>
    </g>
    <g id="组_357" data-name="组 357" transform="translate(43.969 16.043)">
      <path id="路径_551" data-name="路径 551" d="M1850.352,687.379a7.382,7.382,0,0,1,.842.024q.8,1.94,1.671,3.848a2.829,2.829,0,0,1,.229.77,7.8,7.8,0,0,1-.866-.024q-.266-.66-.553-1.311-.9-.024-1.8,0-.263.651-.505,1.311a3.91,3.91,0,0,1-.866,0Zm.385.938a.1.1,0,0,1,.06.072q.275.806.613,1.587-.625.036-1.25.024Q1850.455,689.161,1850.737,688.317Z" transform="translate(-1848.5 -687.376)" fill="#19a3ab" fill-rule="evenodd"/>
    </g>
    <g id="组_358" data-name="组 358" transform="translate(50.005 16.07)">
      <path id="路径_552" data-name="路径 552" d="M2100.293,693.118h-.793V688.5h.793Z" transform="translate(-2099.5 -688.5)" fill="#01a0a9" fill-rule="evenodd"/>
    </g>
    <g id="组_359" data-name="组 359" transform="translate(58.854 16.07)">
      <path id="路径_553" data-name="路径 553" d="M2467.574,688.5h.7v4.618h-.794q-.03-2.309-.024-4.618Z" transform="translate(-2467.452 -688.5)" fill="#14a1aa" fill-rule="evenodd"/>
    </g>
    <g id="组_360" data-name="组 360" transform="translate(63.016 16.046)">
      <path id="路径_554" data-name="路径 554" d="M2644.108,688.221h-2.766v1.154h2.573v.721q-1.293-.012-2.573.024V691.4q1.431-.007,2.862.024v.7h-3.656q.012-1.533-.024-3.054,0-.77-.024-1.539,1.8-.018,3.608-.024Z" transform="translate(-2640.5 -687.5)" fill="#11a1aa" fill-rule="evenodd"/>
    </g>
    <g id="组_361" data-name="组 361" transform="translate(82.761 16.046)">
      <path id="路径_555" data-name="路径 555" d="M3461.5,687.5h.842v4.642h-.842Z" transform="translate(-3461.5 -687.5)" fill="#88d0d4" fill-rule="evenodd"/>
    </g>
    <g id="组_362" data-name="组 362" transform="translate(82.785 16.07)">
      <path id="路径_556" data-name="路径 556" d="M3462.5,688.5h.793v4.594h-.793Z" transform="translate(-3462.5 -688.5)" fill="#00a0a8" fill-rule="evenodd"/>
    </g>
    <g id="组_363" data-name="组 363" transform="translate(76.89 16.046)">
      <path id="路径_557" data-name="路径 557" d="M3217.885,687.5a2.416,2.416,0,0,1-.481.024v4.618q-.036-2.315-.024-4.642Z" transform="translate(-3217.376 -687.5)" fill="#7dcdd1" fill-rule="evenodd"/>
    </g>
    <g id="组_364" data-name="组 364" transform="translate(63.858 16.768)">
      <path id="路径_558" data-name="路径 558" d="M2678.266,717.5q-1.365.036-2.742.024a.393.393,0,0,1-.024.192V717.5Z" transform="translate(-2675.5 -717.5)" fill="#a8dfe1" fill-rule="evenodd"/>
    </g>
    <g id="组_365" data-name="组 365" transform="translate(71.407 16.07)">
      <path id="路径_559" data-name="路径 559" d="M2989.4,688.5v.7h1.539v1.082q-.036-.523-.024-1.058h-1.539A5.392,5.392,0,0,1,2989.4,688.5Z" transform="translate(-2989.378 -688.5)" fill="#caebed" fill-rule="evenodd"/>
    </g>
    <g id="组_366" data-name="组 366" transform="translate(73.791 16.046)">
      <path id="路径_560" data-name="路径 560" d="M3089.077,687.5h.986v.746h-1.539q.012.92-.024,1.828v-1.852h1.539v-.7A9.617,9.617,0,0,1,3089.077,687.5Z" transform="translate(-3088.5 -687.5)" fill="#bce6e8" fill-rule="evenodd"/>
    </g>
    <g id="组_367" data-name="组 367" transform="translate(49.978 16.046)">
      <path id="路径_561" data-name="路径 561" d="M2099.2,692.142v-4.618h-.793v3.824q-.036-1.918-.024-3.848h.842Q2099.233,689.827,2099.2,692.142Z" transform="translate(-2098.377 -687.5)" fill="#c8ebec" fill-rule="evenodd"/>
    </g>
    <g id="组_368" data-name="组 368" transform="translate(86.393 16.768)">
      <path id="路径_562" data-name="路径 562" d="M3612.668,717.5a.23.23,0,0,1-.144.024,1.967,1.967,0,0,1-.024.433V717.5Z" transform="translate(-3612.5 -717.5)" fill="#e6f6f6" fill-rule="evenodd"/>
    </g>
    <g id="组_369" data-name="组 369" transform="translate(58.976 16.044)">
      <path id="路径_563" data-name="路径 563" d="M2472.5,687.405a5.435,5.435,0,0,1,.722-.024q.012,2.327-.024,4.642v-4.618Z" transform="translate(-2472.5 -687.378)" fill="#aadfe2" fill-rule="evenodd"/>
    </g>
    <g id="组_370" data-name="组 370" transform="translate(39.543 16.07)">
      <path id="路径_564" data-name="路径 564" d="M1666.737,688.5v1.828q-1.124.012-2.237-.024h2.213Q1666.7,689.4,1666.737,688.5Z" transform="translate(-1664.5 -688.5)" fill="#71c8cd" fill-rule="evenodd"/>
    </g>
    <g id="组_371" data-name="组 371" transform="translate(68.235 18.283)">
      <path id="路径_565" data-name="路径 565" d="M2857.957,780.5h1.491q.014.373.024.746-.987-.01-1.972.024v-.746A2.185,2.185,0,0,0,2857.957,780.5Z" transform="translate(-2857.5 -780.5)" fill="#1ba3ac" fill-rule="evenodd"/>
    </g>
    <g id="组_372" data-name="组 372" transform="translate(39.543 18.596)">
      <path id="路径_566" data-name="路径 566" d="M1664.5,793.524V793.5h2.237v.457a1.966,1.966,0,0,1-.024-.433Z" transform="translate(-1664.5 -793.5)" fill="#f4fbfb" fill-rule="evenodd"/>
    </g>
    <g id="组_373" data-name="组 373" transform="translate(63.858 18.259)">
      <path id="路径_567" data-name="路径 567" d="M2678.073,779.5a1.768,1.768,0,0,1,.024.409h-2.6q1.281-.036,2.573-.024Z" transform="translate(-2675.5 -779.5)" fill="#9edbde" fill-rule="evenodd"/>
    </g>
    <g id="组_374" data-name="组 374" transform="translate(41.78 16.044)">
      <path id="路径_568" data-name="路径 568" d="M1757.861,687.408a2.192,2.192,0,0,1,.457-.024v4.642h-.818v-1.2q.036.583.024,1.178h.77v-4.594Z" transform="translate(-1757.5 -687.381)" fill="#5ac1c6" fill-rule="evenodd"/>
    </g>
    <g id="组_375" data-name="组 375" transform="translate(39.159 18.596)">
      <path id="路径_569" data-name="路径 569" d="M1648.885,793.5v2.092h-.385a1.369,1.369,0,0,1,.361-.024Q1648.849,794.528,1648.885,793.5Z" transform="translate(-1648.5 -793.5)" fill="#95d8db" fill-rule="evenodd"/>
    </g>
    <g id="组_376" data-name="组 376" transform="translate(85.575 18.451)">
      <path id="路径_570" data-name="路径 570" d="M3578.5,787.5q.036,1.1.024,2.213h.77v-1.78h1.347q-.655.036-1.323.024v1.78h-.818Z" transform="translate(-3578.5 -787.5)" fill="#65c4ca" fill-rule="evenodd"/>
    </g>
    <g id="组_377" data-name="组 377" transform="translate(63.04 17.61)">
      <path id="路径_571" data-name="路径 571" d="M2641.5,752.5q.036,1.521.024,3.054h3.656v-.6a4.078,4.078,0,0,1,.024.625h-3.7Z" transform="translate(-2641.5 -752.5)" fill="#5dc1c7" fill-rule="evenodd"/>
    </g>
    <g id="组_378" data-name="组 378" transform="translate(72.973 18.957)">
      <path id="路径_572" data-name="路径 572" d="M3054.5,808.5q.036.847.024,1.708h.77q-.012-.788.024-1.563v1.587h-.818Z" transform="translate(-3054.5 -808.5)" fill="#4ebdc3" fill-rule="evenodd"/>
    </g>
  </g>
</svg>
