<?xml version="1.0" standalone="no"?><!DOCTYPE svg PUBLIC "-//W3C//DTD SVG 1.1//EN" "http://www.w3.org/Graphics/SVG/1.1/DTD/svg11.dtd"><svg t="1602813394359" class="icon" viewBox="0 0 3323 1024" version="1.1" xmlns="http://www.w3.org/2000/svg" p-id="2059" xmlns:xlink="http://www.w3.org/1999/xlink" width="649.0234375" height="200"><defs><style type="text/css"></style></defs><path d="M2387.406297 601.66104c3.28474-12.659167 11.330508-37.4608 19.339369-60.232537s16.682051-43.550486 23.657509-60.232537a367.780166 367.780166 0 0 1 20.778749-42.517085 205.905223 205.905223 0 0 1 25.835035-35.430904 97.471893 97.471893 0 0 1 28.787609-21.258542 185.015752 185.015752 0 0 1 35.578533-11.884116c12.363909-3.02639 24.284932-5.056285 30.22699-6.089687a59.309857 59.309857 0 0 1 17.494009-0.5167l45.654196 1.033401a128.289399 128.289399 0 0 1 23.65751 2.029895l48.938936 6.089687c12.363909 1.771545 12.363909 1.771545 31.297299 3.690719l75.475207 7.086181a231.408092 231.408092 0 0 0 32.109257 1.771545c13.360403 0 40.118117 0.25835 53.478521 0.258351a156.117421 156.117421 0 0 0 20.151326-0.258351c7.012366-0.25835 20.778749-0.996494 27.569673-1.513195a44.879145 44.879145 0 0 0 12.585352-1.513194c5.757522-0.996494 17.272566-3.02639 23.030088-4.281235s5.536079-1.033401 13.13896-2.546596 22.624109-4.318141 30.042454-5.831336 7.602882-1.513195 10.703086-2.288246l11.921023-3.063297 2.878761-0.996494-19.745348 27.828022c-19.966791 27.86493-59.678929 83.520975-79.608813 111.127555s-19.745348 27.828023-60.45398 84.000768-122.199712 168.850402-162.945251 225.13387-40.597911 56.431096-40.597911 56.947797 0.627422 0.996494 15.021227 1.771545 42.590899 1.771545 65.84243 2.029895 40.930076-0.25835 49.972338-0.25835a53.810686 53.810686 0 0 0 13.39731-0.775051 160.952263 160.952263 0 0 0 22.144315-5.536079 190.108945 190.108945 0 0 0 27.754208-12.659166 213.286661 213.286661 0 0 0 30.854413-20.778749 256.689519 256.689519 0 0 0 30.854412-30.854413 355.342442 355.342442 0 0 0 23.251531-30.374619c6.163501-9.374427 11.072158-17.235659 13.581846-21.295449s2.472782-4.059791 10.297107-4.059791 23.436067 0.25835 31.260391 0.5167h7.602882l-1.660824 6.31113c-1.84536 6.089687-5.536079 18.453596-10.703085 32.146164s-11.515044 28.861424-20.778749 49.344916-21.590707 46.576876-32.478329 66.838924a413.360548 413.360548 0 0 1-27.754208 44.768423 129.913315 129.913315 0 0 1-18.453596 20.778749 116.146932 116.146932 0 0 1-21.000192 15.685557 121.203218 121.203218 0 0 1-28.381631 12.400816 192.286469 192.286469 0 0 1-44.28863 7.086181 683.225934 683.225934 0 0 1-68.499748 0.221443c-22.144315-0.996494-39.896674-2.768039-63.775627-5.572986s-53.921407-6.56948-78.169432-9.079169-42.590899-3.690719-61.930268-4.576492-39.490695-0.221443-59.678929 0.775051-40.118117 3.02639-58.424085 4.797935-34.766575 3.690719-47.536463 4.834842-21.81215 1.771545-33.51173 3.247833-26.130292 4.059791-33.216472 5.314636l-6.975459 1.254844 18.453595-26.056477c18.453596-25.835034 55.360788-77.947989 115.408789-162.391644s143.38444-201.218009 184.905031-259.715908l41.557498-58.460992-1.217938-0.25835c-1.254845-0.25835-3.690719-0.775051-7.824324-1.513195a151.024229 151.024229 0 0 0-15.64865-2.029895c-6.163501-0.738144-12.954424-1.513195-27.791115-2.029896s-37.829872-1.254845-53.478521-0.25835a85.218706 85.218706 0 0 0-33.216473 7.381438 273.113219 273.113219 0 0 0-28.197094 14.762877 134.342178 134.342178 0 0 0-18.933389 12.659167 121.277032 121.277032 0 0 0-15.205763 16.718957 305.665362 305.665362 0 0 0-18.453596 25.318334 233.659431 233.659431 0 0 0-12.769889 24.063489c-3.690719 7.861232-6.790923 15.685556-8.451747 19.745348s-2.029896 4.318141-2.029895 4.318141 0 0.25835-4.355049 0-12.548445-0.25835-16.645143-0.25835-4.133605-0.221443-7.381439-0.221444-9.042262-0.25835-11.921022-0.5167h-3.321648c-0.590515 0-2.066803 0 1.217938-12.400817z" fill="#0081D4" p-id="2060"></path><path d="M1692.074805 1012.917878h-204.908729c-0.184536 0 0.221443 0 16.866587-77.947989s49.787802-233.622524 66.248409-311.570513 16.460608-77.947989 17.715452-86.289014a337.922248 337.922248 0 0 0 4.539584-37.71915 70.603458 70.603458 0 0 0-3.100204-30.116269 30.22699 30.22699 0 0 0-12.954424-14.393805 51.116461 51.116461 0 0 0-16.682051-5.314635 85.735406 85.735406 0 0 0-15.648649-0.516701 74.810878 74.810878 0 0 1-10.260199 0.25835 3.02639 3.02639 0 0 1-2.472782-2.288246c-0.184536-0.516701-0.184536-0.516701-0.184536-7.08618v-33.401009l17.08803-2.029895c17.08803-2.029896 51.227182-5.831336 68.278304-7.861232s17.08803-2.029896 46.724505-5.831337 88.57726-11.884116 118.103014-15.685556 29.525753-4.059791 31.075855-2.768039a23.842046 23.842046 0 0 1 6.606388 7.565974c2.472782 4.059791 4.133605 10.112571 7.012366 15.943907a108.138072 108.138072 0 0 1 8.41484 19.523904 118.951879 118.951879 0 0 1 3.28474 28.861424c0.405979 11.625765 0.405979 25.835034 0.811958 32.884308s1.033401 7.086181 4.539585 5.056285a189.260079 189.260079 0 0 0 20.151326-12.917517c9.706591-7.086181 22.845552-17.198751 35.393997-26.056477a338.328227 338.328227 0 0 1 42.590899-25.281427 421.849202 421.849202 0 0 1 61.708825-26.831528 353.866154 353.866154 0 0 1 66.654388-13.692568 527.514492 527.514492 0 0 1 72.81789-5.536079 143.938048 143.938048 0 0 1 54.105943 10.370921 112.714564 112.714564 0 0 1 38.272758 25.576684 123.93435 123.93435 0 0 1 22.144315 31.629463 64.476864 64.476864 0 0 1 6.790923 30.116269 325.115452 325.115452 0 0 1-3.690719 56.984704c-3.506183 23.768231-9.669684 50.85811-16.645144 81.749429s-15.205763 66.063873-22.144315 97.693337-12.769888 59.752743-16.460607 78.206339a244.916124 244.916124 0 0 0-6.163501 34.951111 63.517277 63.517277 0 0 0 1.43938 20.225141 47.57337 47.57337 0 0 0 6.163501 16.460607 59.974187 59.974187 0 0 0 11.736487 12.142467 50.562853 50.562853 0 0 0 14.762877 8.857726 62.742226 62.742226 0 0 0 21.627614 4.318141 71.267787 71.267787 0 0 0 23.436067-3.690719 80.789843 80.789843 0 0 0 16.276072-8.599376c3.28474-2.288246 3.912162-2.546596 6.975459 3.690719s8.636283 18.453596 11.330508 24.801633l2.657317 6.31113-30.22699 18.232153c-30.448433 18.232153-90.93932 54.659551-121.978268 72.891703s-32.515236 18.232153-39.084716 18.232153h-28.197095a97.324265 97.324265 0 0 1-31.260391-3.690719 284.185376 284.185376 0 0 1-46.281619-18.748853 166.746692 166.746692 0 0 1-38.90018-24.801633 111.791884 111.791884 0 0 1-23.436067-31.112763 104.041374 104.041374 0 0 1-10.703085-35.689254 246.761484 246.761484 0 0 1-0.221443-56.947797 693.043247 693.043247 0 0 1 16.460607-81.49108c8.636283-36.685749 20.557306-86.805715 28.603074-122.236619s11.95793-55.692952 13.987825-70.861808a89.204682 89.204682 0 0 0 0-33.401008 44.620795 44.620795 0 0 0-10.075663-19.745348 30.116268 30.116268 0 0 0-15.205763-7.602881 93.559731 93.559731 0 0 0-25.09689-2.546597 93.596638 93.596638 0 0 0-27.385137 6.827831 109.503638 109.503638 0 0 0-25.09689 12.88061 144.860728 144.860728 0 0 0-24.690911 21.258542 172.061328 172.061328 0 0 0-21.590707 28.344723 369.588618 369.588618 0 0 0-23.65751 44.28863 489.131012 489.131012 0 0 0-24.284933 72.670261c-9.263705 34.17606-20.557306 82.487574-30.854412 127.292904s-19.745348 86.067571-26.130292 115.408789-10.112571 46.798319-11.921023 55.951303-2.251339 9.59587-2.87876 12.142466-1.43938 7.086181-1.84536 9.374426-0.627422 2.288246-41.151519 2.546597z" fill="#0081D4" p-id="2061"></path><path d="M1372.38471 753.792484a105.628383 105.628383 0 0 0-17.899988 24.58019 390.514996 390.514996 0 0 1-24.284933 35.947605 224.727891 224.727891 0 0 1-30.042454 31.629463 224.617169 224.617169 0 0 1-30.042454 23.030088 150.507528 150.507528 0 0 1-27.975651 13.13896 212.76996 212.76996 0 0 1-29.821011 8.341025 225.13387 225.13387 0 0 1-38.235851 4.797935 206.163573 206.163573 0 0 1-46.097082-4.059791 148.699076 148.699076 0 0 1-42.406363-15.205763 141.354544 141.354544 0 0 1-35.172554-25.576684 124.229607 124.229607 0 0 1-23.65751-34.43441 174.017409 174.017409 0 0 1-11.921023-35.689254 185.975339 185.975339 0 0 1-4.133606-31.14967 2205.389243 2205.389243 0 0 1-1.254844-40.228839l-0.184536-8.857726 1.217937-0.738144a33.216473 33.216473 0 0 1 14.393805-3.321647c10.260199-0.738144 28.38163-0.738144 49.787802-1.771545s46.097082-3.02639 67.687789-4.797935 40.118117-4.022884 60.896867-6.56948 44.03028-5.536079 68.093769-10.112571a448.643823 448.643823 0 0 0 70.972529-18.748853 311.533606 311.533606 0 0 0 60.45398-30.374619 243.882723 243.882723 0 0 0 46.687598-36.722656 107.030856 107.030856 0 0 0 22.144315-35.689254 84.296026 84.296026 0 0 0 4.945564-29.857918 165.418033 165.418033 0 0 0-3.690719-34.43441 85.144891 85.144891 0 0 0-12.954425-30.374619 130.356201 130.356201 0 0 0-26.351735-27.828023 218.342946 218.342946 0 0 0-39.712138-27.348229 209.522128 209.522128 0 0 0-50.821203-18.711946 650.378533 650.378533 0 0 0-69.348613-12.400816 464.513915 464.513915 0 0 0-64.993565-4.318142 485.920087 485.920087 0 0 0-61.708825 5.314636 601.033618 601.033618 0 0 0-73.039332 14.430712 543.901285 543.901285 0 0 0-76.508609 27.828022 453.478665 453.478665 0 0 0-66.248409 35.430904 382.912114 382.912114 0 0 0-55.360787 44.288631 509.023989 509.023989 0 0 0-51.448626 55.360787 288.355889 288.355889 0 0 0-33.216472 52.924913 355.010277 355.010277 0 0 0-22.808645 56.689447 257.796734 257.796734 0 0 0-8.67319 54.659551 493.63369 493.63369 0 0 0-0.405979 60.011093 233.216545 233.216545 0 0 0 8.451747 53.404707 219.376348 219.376348 0 0 0 22.402665 52.408212 233.696338 233.696338 0 0 0 39.896675 49.123472 271.489303 271.489303 0 0 0 51.670068 37.4608 295.257534 295.257534 0 0 0 47.979349 21.775243 338.402041 338.402041 0 0 0 38.051315 11.367415 235.800048 235.800048 0 0 0 37.866779 6.606387c13.987826 0.996494 30.042454 0.996494 50.59976 0.996495h62.742226a352.906567 352.906567 0 0 0 38.863273-1.254845c12.327002-1.513195 27.569672-4.059791 44.030279-7.086181s33.733173-6.82783 52.666563-10.850714 39.084716-8.857726 49.381823-11.072158 11.072158-1.734638 11.072157-1.734638 0.184536 0.221443 17.272566-35.467811l68.315212-143.015368c17.08803-35.689254 17.051123-35.689254 11.921023-36.907192s-15.648649-4.059791-23.030088-5.831336-11.95793-3.28474-17.08803 0.738144z m-355.305535-135.670837a195.202137 195.202137 0 0 1 15.24267-31.629463 256.984776 256.984776 0 0 1 23.842046-34.176059 211.478209 211.478209 0 0 1 30.891319-31.408021 248.496122 248.496122 0 0 1 40.118118-26.831528 171.323184 171.323184 0 0 1 37.645335-15.464113 117.327963 117.327963 0 0 1 32.921215-4.576492 61.598103 61.598103 0 0 1 22.144315 3.690719 53.958314 53.958314 0 0 1 16.460608 9.374427 55.360788 55.360788 0 0 1 11.921023 13.914011 35.35709 35.35709 0 0 1 5.130099 15.168856 62.040989 62.040989 0 0 1-1.43938 20.003698 54.917901 54.917901 0 0 1-9.891127 18.970296 88.909425 88.909425 0 0 1-18.453596 17.457102 224.838612 224.838612 0 0 1-23.878953 14.762877 249.234266 249.234266 0 0 1-22.624109 11.404322 203.395534 203.395534 0 0 1-28.197094 9.891127c-10.297106 3.02639-21.406171 5.056285-30.22699 7.086181s-15.648649 3.28474-23.842046 4.797935-18.453596 2.509689-27.791116 3.02639-17.678545 0.996494-25.09689 1.254844-13.766383 0.221443-17.678545 0.479794a45.949454 45.949454 0 0 1-6.790923 0.5167c-1.43938-0.25835-2.878761-1.291752-0.627422-8.119582z" fill="#007CCF" p-id="2062"></path><path d="M482.404688 855.028911a284.517541 284.517541 0 0 0 35.61544-15.722463 310.906183 310.906183 0 0 0 38.64183-25.281427 545.894273 545.894273 0 0 0 42.996878-36.464305 396.346332 396.346332 0 0 0 35.578533-38.715644c11.072158-13.434218 21.81215-27.828023 27.163693-34.951111s5.351543-7.381438 5.536079-7.381438 0.405979-0.738144 0.627422-0.738144l0.221443-0.258351 6.790923 3.284741c6.606387 3.02639 19.929884 9.632777 26.757714 12.917517l6.790924 3.321647-22.624109 51.374811c-22.624109 51.374811-67.909233 154.382783-90.348805 205.757594l-22.624109 51.374811h-26.720807a18.785761 18.785761 0 0 1-7.824324-0.738144c-2.251339-0.516701-7.012366-2.029896-12.548445-3.690719s-11.515044-3.02639-18.711947-4.539585a237.645408 237.645408 0 0 0-26.94225-4.318141 379.442838 379.442838 0 0 0-42.369456-2.029896c-14.209269 0.516701-26.351735 2.288246-38.90018 3.690719s-25.09689 2.546596-40.302653 3.69072-32.699772 2.509689-48.754401 3.28474a408.304262 408.304262 0 0 1-46.281618-0.221444 489.241734 489.241734 0 0 1-39.269252-3.690719 60.084908 60.084908 0 0 1-13.987826-2.251338c-6.163501-1.771545-18.453596-4.797935-24.284932-6.31113a64.698307 64.698307 0 0 1-13.581846-4.576492c-7.565974-3.02639-22.624109-8.857726-36.390492-15.685556a260.601681 260.601681 0 0 1-38.457293-23.546789 301.642478 301.642478 0 0 1-32.921215-27.052971 157.113915 157.113915 0 0 1-23.65751-28.086373 269.4225 269.4225 0 0 1-23.251531-41.520591A330.836067 330.836067 0 0 1 4.493462 826.721095a103.340137 103.340137 0 0 1-4.096698-32.146164 809.743787 809.743787 0 0 1 1.033401-73.408404 271.341674 271.341674 0 0 1 7.787417-52.112955c3.100204-13.397311 6.606387-24.284932 9.891128-34.17606a158.922368 158.922368 0 0 1 13.987825-30.116268c7.381438-11.884116 18.453596-27.348229 28.418538-40.597911s18.711946-24.026582 31.038948-40.597911 27.975651-38.457294 35.799976-49.344915 8.008861-11.072158 32.478329-44.805331 73.814383-101.753128 98.320759-135.670837l24.690911-33.696266 44.28863-0.221443c44.28863-0.25835 132.681354-0.516701 177.523593-0.775051s46.097082-0.25835 46.097082 0.775051a19.597719 19.597719 0 0 1-3.690719 6.31113c-2.066803 3.02639-5.1301 6.82783-18.453596 25.835034s-37.239356 52.888006-84.886541 120.243631-119.320951 167.817001-157.372266 220.963357-42.590899 58.497899-46.281618 64.809028a103.340137 103.340137 0 0 0-9.485148 21.000192 136.962589 136.962589 0 0 0-5.942058 23.030088 130.799088 130.799088 0 0 0-2.066803 27.311322 81.195822 81.195822 0 0 0 4.724121 25.835034 160.583191 160.583191 0 0 0 11.921023 26.831529 109.282195 109.282195 0 0 0 14.762876 21.000192 101.310241 101.310241 0 0 0 19.745348 17.715452 103.340137 103.340137 0 0 0 23.842046 11.662672c7.824325 2.509689 14.762877 3.690719 20.37277 5.314636s10.481642 3.02639 17.494008 4.059791a134.231456 134.231456 0 0 0 29.821011 0.516701 407.086325 407.086325 0 0 0 47.31502-5.831337 318.951951 318.951951 0 0 0 36.907192-9.374426c10.703086-3.690719 20.778749-7.086181 31.887814-11.625766z" fill="#007CCF" p-id="2063"></path><path d="M609.771407 252.59282h-50.821204l10.075664-14.172361c10.297106-14.430712 30.854412-43.033786 41.151519-57.206148s10.297106-14.172362 30.22699-42.000384S700.67382 55.692952 720.825146 27.828023L740.976473 0h215.833258l-30.485341 42.000384c-30.632969 42.037291-91.751279 126.29641-122.199712 168.333702l-30.448433 42.000384h-25.318333c-25.09689 0-75.512114 0.25835-101.19952 0.25835z" fill="#E85400" p-id="2064"></path><path d="M3092.186031 270.418994a115.039717 115.039717 0 0 1 114.707552-120.243631 115.076624 115.076624 0 0 1 114.744459 120.243631 114.707552 114.707552 0 0 1-114.744459 120.206723 114.707552 114.707552 0 0 1-114.707552-120.206723z m205.462336 0a92.267979 92.267979 0 0 0-90.754784-98.357666 92.267979 92.267979 0 0 0-90.717878 98.357666 91.825093 91.825093 0 0 0 90.717878 98.357666 91.825093 91.825093 0 0 0 90.754784-98.357666zM3162.64186 207.049346h46.429247c25.133798 0 47.57337 10.370921 47.57337 39.343066a36.464305 36.464305 0 0 1-22.956273 33.880802l28.418538 50.784296h-27.901837l-21.849058-43.181414h-24.543282v43.181414h-25.170705z m40.966983 61.745732c16.4237 0 26.241013-7.123088 26.241013-20.778749 0-11.994837-6.532573-20.225141-25.133798-20.225142h-16.903493v41.003891z" fill="#E85400" p-id="2065"></path></svg>