<?xml version="1.0" standalone="no"?><!DOCTYPE svg PUBLIC "-//W3C//DTD SVG 1.1//EN" "http://www.w3.org/Graphics/SVG/1.1/DTD/svg11.dtd"><svg t="1602752491524" class="icon" viewBox="0 0 1024 1024" version="1.1" xmlns="http://www.w3.org/2000/svg" p-id="2569" xmlns:xlink="http://www.w3.org/1999/xlink" width="200" height="200"><defs><style type="text/css"></style></defs><path d="M738.669714 292.205714a318.537143 318.537143 0 0 1 78.043429 133.668572h97.792v172.251428h-97.792a318.537143 318.537143 0 0 1-78.043429 133.485715l49.334857 85.248-148.918857 86.272-49.371428-85.211429a306.322286 306.322286 0 0 1-154.294857 0l-49.298286 85.211429-148.918857-86.125715 49.298285-85.394285A318.537143 318.537143 0 0 1 208.457143 597.942857H110.665143v-172.068571H208.457143A318.537143 318.537143 0 0 1 286.500571 292.205714L237.165714 206.957714l148.955429-86.089143 49.334857 85.248a306.322286 306.322286 0 0 1 154.294857 0l49.334857-85.248 148.918857 86.125715z m-53.833143 219.977143a171.52 171.52 0 1 0-50.249142 122.002286 171.885714 171.885714 0 0 0 50.249142-122.002286z" p-id="2570"></path></svg>