<?xml version="1.0" standalone="no"?><!DOCTYPE svg PUBLIC "-//W3C//DTD SVG 1.1//EN" "http://www.w3.org/Graphics/SVG/1.1/DTD/svg11.dtd"><svg t="1602810634959" class="icon" viewBox="0 0 1024 1024" version="1.1" xmlns="http://www.w3.org/2000/svg" p-id="1779" xmlns:xlink="http://www.w3.org/1999/xlink" width="200" height="200"><defs><style type="text/css"></style></defs><path d="M824.064 794.185143l-22.491429-33.499429 67.510858-39.241143V318.061714l-201.947429-117.723428 19.346286-33.499429 221.842285 128.694857v448.402286zM168.484571 561.371429H129.206857v-263.314286l397.641143-223.963429 89.453714 50.212572-19.894857 36.571428-70.107428-41.874285-357.888 201.435428z m350.025143 406.528L129.206857 746.569143v-109.275429h39.241143v86.857143l350.025143 198.838857 227.072-128.694857 19.894857 33.499429z m-25.124571-633.088l-86.857143-50.761143v-30.756572l115.090286-67.510857 111.981714 67.510857v30.866286l-84.114286 50.212571-2.633143 30.866286-25.234285-16.859428-28.269715 16.749714z m176.859428 201.435428v-100.461714l-86.857142-50.212572v-30.866285l111.981714-64.365715 115.090286 64.365715v131.84l-115.090286 64.365714z m-263.716571 252.342857v-128.694857l25.124571-16.749714 86.857143 50.212571 89.453715-50.212571 25.124571 14.116571v131.84l-115.090286 67.510857z m263.716571-50.212571v-101.083429l-28.269714-16.749714 28.269714-14.116571v-30.939429l25.124572 16.749714 86.857143-50.212571 28.269714 14.116571v131.84l-115.090286 64.365715z m-263.716571-151.222857v-132.022857l115.090286-64.365715 111.981714 64.365715v131.84l-115.090286 64.365714z m-179.456 100.461714l2.633143-131.84 25.124571-14.116571 86.857143 50.212571 28.269714-16.749714v30.866285l28.269715 16.749715-28.269715 14.116571v100.973714l-28.269714 14.116572z m0-201.435429l2.633143-131.84 115.090286-64.365714 111.981714 64.365714v30.610286l-86.857143 50.212572v97.828571l-28.269714 16.749714z" p-id="1780"></path></svg>