<?xml version="1.0" standalone="no"?><!DOCTYPE svg PUBLIC "-//W3C//DTD SVG 1.1//EN" "http://www.w3.org/Graphics/SVG/1.1/DTD/svg11.dtd"><svg t="1602810608669" class="icon" viewBox="0 0 1024 1024" version="1.1" xmlns="http://www.w3.org/2000/svg" p-id="1638" xmlns:xlink="http://www.w3.org/1999/xlink" width="200" height="200"><defs><style type="text/css"></style></defs><path d="M138.349714 831.378286h219.026286v-352l-59.940571-41.801143-159.049143 135.314286v258.486857z m270.628572 0h219.062857v-349.952l-105.837714 89.014857-113.371429-61.549714z m270.628571-391.314286v391.314286h219.062857V442.477714l-93.293714-123.099428-125.549714 120.685714z" p-id="1639"></path><path d="M174.518857 474.989714l119.149714-99.657143 227.547429 138.532572 269.933714-254.171429a27.062857 27.062857 0 0 0 2.633143-2.998857l45.421714 45.970286 73.142858-206.043429-209.956572 67.693715 50.285714 50.834285a15.689143 15.689143 0 0 0-2.011428 1.536l-237.129143 223.341715-225.28-137.179429-151.625143 126.866286a29.549714 29.549714 0 1 0 37.888 45.312z m719.433143 396.946286h-757.028571a29.549714 29.549714 0 0 0 0 59.099429h757.028571a29.513143 29.513143 0 1 0 0-59.062858z" p-id="1640"></path></svg>