<svg id="车辆离线" xmlns="http://www.w3.org/2000/svg" width="20" height="20" viewBox="0 0 20 20">
  <path id="路径_1312" data-name="路径 1312" d="M0,0H20V20H0Z" fill="none"/>
  <path id="路径_1313" data-name="路径 1313" d="M14.5,17.167H6.167V18a.833.833,0,0,1-.833.833H3.667A.833.833,0,0,1,2.833,18V10.5H2V7.167h.833v-2.5A1.667,1.667,0,0,1,4.5,3H16.167a1.667,1.667,0,0,1,1.667,1.667v2.5h.833V10.5h-.833V18a.833.833,0,0,1-.833.833H15.333A.833.833,0,0,1,14.5,18Zm-10-12.5V10.5H16.167V4.667ZM6.583,15.5a1.25,1.25,0,1,0-1.25-1.25A1.25,1.25,0,0,0,6.583,15.5Zm7.5,0a1.25,1.25,0,1,0-1.25-1.25A1.25,1.25,0,0,0,14.083,15.5Z" transform="translate(-0.333 -0.5)"/>
</svg>
