<svg xmlns="http://www.w3.org/2000/svg" width="22" height="22" viewBox="0 0 22 22">
  <defs>
    <style>
      .cls-1 {
        fill: none;
      }

      .cls-2 {
        fill: #67c23a;
      }
    </style>
  </defs>
  <g id="tree-channel-on" transform="translate(3 3)">
    <path id="路径_1272" data-name="路径 1272" class="cls-1" d="M0,0H22V22H0Z" transform="translate(-3 -3)"/>
    <path id="路径_1273" data-name="路径 1273" class="cls-2" d="M11,4a.667.667,0,0,1,.667.667v2.8l3.475-2.433a.333.333,0,0,1,.525.273V13.36a.333.333,0,0,1-.525.273L11.667,11.2V14a.667.667,0,0,1-.667.667H1.667A.667.667,0,0,1,1,14V4.667A.667.667,0,0,1,1.667,4ZM5.267,7.219a.267.267,0,0,0-.261.213L5,7.485V11.18a.267.267,0,0,0,.361.249l.049-.024,2.9-1.848a.267.267,0,0,0,.042-.416l-.042-.033L5.41,7.26a.267.267,0,0,0-.143-.04Z" transform="translate(-0.333 -1.333)"/>
  </g>
</svg>
