<svg xmlns="http://www.w3.org/2000/svg" width="22" height="22" viewBox="0 0 22 22">
  <defs>
    <style>
      .cls-1 {
        fill: none;
      }

      .cls-2 {
        fill: #e8ebf1;
      }

      .cls-3 {
        fill: #fff;
      }

      .cls-4 {
        fill: #dcdfe6;
      }
    </style>
  </defs>
  <g id="tree-ranks-on" transform="translate(3 3)">
    <path id="路径_1270" data-name="路径 1270" class="cls-1" d="M0,0H22V22H0Z" transform="translate(-3 -3)"/>
    <path id="路径_2527" data-name="路径 2527" class="cls-2" d="M8.316,10.158H4.105v.421A.421.421,0,0,1,3.684,11H2.842a.421.421,0,0,1-.421-.421V6.79H2V5.105h.421V3.842A.842.842,0,0,1,3.263,3H9.158A.842.842,0,0,1,10,3.842V5.105h.421V6.79H10v3.79A.421.421,0,0,1,9.579,11H8.737a.421.421,0,0,1-.421-.421Zm-4.8-6V6.79H8.922V4.156Zm.8,5.16a.632.632,0,1,0-.632-.632A.632.632,0,0,0,4.316,9.316Zm3.79,0a.632.632,0,1,0-.632-.632A.632.632,0,0,0,8.105,9.316Z" transform="translate(6 -3)"/>
    <rect id="矩形_1102" data-name="矩形 1102" class="cls-3" width="6" height="10" rx="1" transform="translate(11 4) rotate(90)"/>
    <path id="路径_1271" data-name="路径 1271" class="cls-4" d="M11.532,13.8H5.177v.635a.635.635,0,0,1-.635.635H3.271a.635.635,0,0,1-.635-.635V8.719H2V6.177h.635V4.271A1.271,1.271,0,0,1,3.906,3h8.9a1.271,1.271,0,0,1,1.271,1.271V6.177h.635V8.719h-.635v5.719a.635.635,0,0,1-.635.635H12.167a.635.635,0,0,1-.635-.635ZM4.148,4.626V8.719H12.58V4.626Zm1.347,7.906a.953.953,0,1,0-.953-.953A.953.953,0,0,0,5.495,12.532Zm5.719,0a.953.953,0,1,0-.953-.953A.953.953,0,0,0,11.214,12.532Z" transform="translate(-2.048 0.531)"/>
  </g>
</svg>
