<?xml version="1.0" standalone="no"?><!DOCTYPE svg PUBLIC "-//W3C//DTD SVG 1.1//EN" "http://www.w3.org/Graphics/SVG/1.1/DTD/svg11.dtd"><svg t="1614043082804" class="icon" viewBox="0 0 1024 1024" version="1.1" xmlns="http://www.w3.org/2000/svg" p-id="4442" xmlns:xlink="http://www.w3.org/1999/xlink" width="32" height="32"><defs><style type="text/css"></style></defs><path d="M286.52 423q4.29-10.16 9.43-19.82l-52.66-52.68a317.65 317.65 0 0 0-48.17 168.68v287.18a32 32 0 0 0 32 32h504l-72-72H395.26V632a8 8 0 0 0-8-8h-48a8 8 0 0 0-8 8v134.36h-64.14V519.18a245.58 245.58 0 0 1 19.4-96.18zM192 887.5a32 32 0 0 0-32 32v32a8 8 0 0 0 8 8h684.29l-72-72z" fill="#1296db" p-id="4443"></path><path d="M476 64.5m8 0l56 0q8 0 8 8l0 79q0 8-8 8l-56 0q-8 0-8-8l0-79q0-8 8-8Z" fill="#1296db" p-id="4444"></path><path d="M786.13 284.65a8 8 0 0 0 11.31 0l55.86-55.87a8 8 0 0 0 0-11.31l-39.6-39.6a8 8 0 0 0-11.31 0l-55.86 55.86a8 8 0 0 0 0 11.32zM930 876.27l-96.5-96.51V519.18C833.5 342.89 690.59 200 514.31 200a317.78 317.78 0 0 0-194.48 66.1l-91.73-91.74a8 8 0 0 0-11.32 0l-42.42 42.42a8 8 0 0 0 0 11.32L876.27 930a8 8 0 0 0 11.31 0L930 887.58a8 8 0 0 0 0-11.31zM418.11 291.38a247.11 247.11 0 0 1 343.39 227.8v188.58L371.26 317.52a246.37 246.37 0 0 1 46.85-26.14z" fill="#1296db" p-id="4445"></path></svg>