<svg id="warning" xmlns="http://www.w3.org/2000/svg" width="16" height="16" viewBox="0 0 16 16">
  <defs>
    <style>
      .cls-1 {
        fill: none;
      }

      .cls-2 {
        fill: #ff3838;
      }
    </style>
  </defs>
  <path id="路径_1692" data-name="路径 1692" class="cls-1" d="M0,0H16V16H0Z"/>
  <path id="路径_1693" data-name="路径 1693" class="cls-2" d="M3.481,12.8V9.2A4.666,4.666,0,0,1,8,4.4a4.666,4.666,0,0,1,4.519,4.8v3.6h.565V14H2.916V12.8Zm1.13-3.6h1.13A2.333,2.333,0,0,1,8,6.8V5.6A3.5,3.5,0,0,0,4.611,9.2ZM7.435,2h1.13V3.8H7.435Zm4.958,1.685.8.848-1.2,1.273-.8-.848,1.2-1.273Zm-9.585.848.8-.848L4.8,4.957l-.8.85Z"/>
</svg>
