<?xml version="1.0" standalone="no"?><!DOCTYPE svg PUBLIC "-//W3C//DTD SVG 1.1//EN" "http://www.w3.org/Graphics/SVG/1.1/DTD/svg11.dtd"><svg t="1614043035764" class="icon" viewBox="0 0 1024 1024" version="1.1" xmlns="http://www.w3.org/2000/svg" p-id="4090" xmlns:xlink="http://www.w3.org/1999/xlink" width="32" height="32"><defs><style type="text/css"></style></defs><path d="M703.015739 983.252958l16.043149-17.097778c7.318488 4.186559 17.545197 7.318488 22.4668 9.619498v24.224516c0 7.606114 8.053533 13.806056 15.691606 13.806056h27.484279c7.638073 0 15.755523-6.167984 15.755523-13.806056v-24.256475c4.889645-2.301009 15.116353-5.496856 22.402883-9.683414l16.586443 17.161695a13.51843 13.51843 0 0 0 19.238995 0l19.430746-19.526622a13.806056 13.806056 0 0 0-0.095875-19.526621l-17.097778-16.107066c4.122642-7.318488 7.318488-17.48128 9.619497-22.402883h24.192558c7.638073 0 13.806056-8.053533 13.806056-15.723564v-27.580155c0-7.670031-6.136025-15.659647-13.806056-15.659647h-24.192558c-2.269051-4.921603-5.528814-15.116353-9.683414-22.4668l17.161695-16.618402a13.614306 13.614306 0 0 0 0-19.238995l-19.526621-19.398788a13.614306 13.614306 0 0 0-19.462705 0.127834l-16.202941 17.033862c-7.222613-4.186559-17.449321-7.318488-22.338967-9.619498v-24.224516c0-7.606114-8.11745-13.74214-15.755522-13.742139h-27.484279c-7.638073 0-15.691606 6.104067-15.691606 13.742139v24.224516c-4.921603 2.301009-15.148312 5.560773-22.4668 9.683414l-16.586443-17.097778a13.51843 13.51843 0 0 0-19.238996 0l-19.398787 19.526622a13.678223 13.678223 0 0 0 0.095875 19.462704l17.06582 16.170983c-4.122642 7.318488-7.318488 17.48128-9.619498 22.402883h-24.160598c-7.638073 0-13.806056 7.989616-13.806057 15.659648v27.580154c0 7.606114 6.136025 15.723564 13.806057 15.723564h24.160598c2.269051 4.921603 5.528814 15.116353 9.683415 22.402884l-17.129737 16.618401a13.678223 13.678223 0 0 0 0 19.334871l19.526622 19.33487c5.369022 5.305105 14.061724 5.305105 19.462704-0.127834h0.063917v0.063917z m67.975653-169.156149a62.063337 62.063337 0 1 1-62.063337 62.095295c0-34.259473 27.739947-62.095296 62.063337-62.095295z" p-id="4091" fill="#1296db"></path><path d="M710.90948 285.823399c17.449321 15.340063 44.006805 13.646264 59.378826-3.803057l82.037377-93.254798a42.057339 42.057339 0 0 0-63.117966-55.607728l-82.133253 93.22284a41.993422 41.993422 0 0 0-9.971041 34.163598c1.438131 9.491664 6.04015 18.440034 13.806057 25.279145z m-198.270311 14.668935h-3.675223V300.460375a258.352223 258.352223 0 0 0-258.320264 258.320265v317.411464h330.897936a230.676193 230.676193 0 0 1 189.449774-201.242448v-116.169016a258.352223 258.352223 0 0 0-258.352223-258.288306z m186.381762 287.817927a22.211132 22.211132 0 0 1-22.179174-22.147216 162.540748 162.540748 0 0 0-162.348997-162.348997h-3.675223a22.115257 22.115257 0 1 1 0-44.262473h3.675223c113.963883 0 206.61147 92.679546 206.61147 206.61147 0 12.240092-9.907124 22.147216-22.083299 22.147216z m270.27273-185.550842l-122.880294 18.695701a42.057339 42.057339 0 1 0 12.655552 83.187882l122.816377-18.695702a42.057339 42.057339 0 1 0-12.591635-83.187881zM181.165981 172.946104l77.59515 97.025897a42.057339 42.057339 0 1 0 65.706602-52.571673L246.872583 120.406389a41.993422 41.993422 0 0 0-59.123159-6.583443 41.961463 41.961463 0 0 0-6.583443 59.123158z m38.254281 729.036481l-32.725467 99.678449h416.163118a229.461771 229.461771 0 0 1-22.88226-99.678449H219.420262z m101.691833 81.14254H214.658451l20.581251-62.734465h148.606857l-62.734464 62.734465z m154.327422-809.15635a42.089297 42.089297 0 0 0 83.699217-5.40098l-0.351543-124.22255a42.057339 42.057339 0 1 0-84.114677-1.949466l0.287626 124.222549c-0.031958 2.49276 0.127834 4.953562 0.479377 7.350447z m-266.373797 281.234483a42.121256 42.121256 0 0 0-33.013093-49.567578l-121.793707-24.448225a42.089297 42.089297 0 0 0-16.554484 82.516754l121.825665 24.480184a42.057339 42.057339 0 0 0 49.535619-32.981135z" p-id="4092" fill="#1296db"></path></svg>