<svg xmlns="http://www.w3.org/2000/svg" width="29" height="14" viewBox="0 0 29 14">
  <path id="联合_8" data-name="联合 8" d="M2,14a2,2,0,0,1-2-2V4A2,2,0,0,1,2,2H5a3,3,0,1,0,6,0h5a3,3,0,1,0,6,0h5a2,2,0,0,1,2,2v8a2,2,0,0,1-2,2ZM22,6.733V10.6a.4.4,0,0,0,.4.4h3.2a.4.4,0,0,0,.4-.4V3.611ZM16,8.4v2.2a.4.4,0,0,0,.4.4h3.2a.4.4,0,0,0,.4-.4V8.4a.4.4,0,0,0-.4-.4H16.4A.4.4,0,0,0,16,8.4Zm-6,0v2.2a.4.4,0,0,0,.4.4h3.2a.4.4,0,0,0,.4-.4V8.4a.4.4,0,0,0-.4-.4H10.4A.4.4,0,0,0,10,8.4Zm-6,0v2.2a.4.4,0,0,0,.4.4H7.6a.4.4,0,0,0,.4-.4V8.4A.4.4,0,0,0,7.6,8H4.4A.4.4,0,0,0,4,8.4ZM17,2a2,2,0,1,1,2,2A2,2,0,0,1,17,2ZM6,2A2,2,0,1,1,8,4,2,2,0,0,1,6,2Z" transform="translate(29 14) rotate(180)"/>
</svg>
