<svg id="bus-shushi-r" xmlns="http://www.w3.org/2000/svg" xmlns:xlink="http://www.w3.org/1999/xlink" width="28" height="14" viewBox="0 0 28 14">
  <defs>
    <style>
      .cls-1 {
        fill: #fff;
      }

      .cls-2 {
        fill: url(#linear);
      }

      .cls-3 {
        fill: #6b6b6b;
      }
    </style>
    <linearGradient id="linear" x1="0%" y1="0%" x2="0%" y2="100%">
	  <stop offset="0%" stop-color="#167BFF" />
	  <stop offset="100%" stop-color="#45F9FF" />
	</linearGradient>
  </defs>
  <path id="路径_2453" data-name="路径 2453" class="cls-1" d="M25.929,0H0V7.582l19.7-.263,6.23,2.59Z" transform="translate(1.317 1.402)"/>
  <path id="路径_1205" data-name="路径 1205" class="cls-2" d="M125.952,368.616v8.359c0,1.106.668,2.024,1.485,2.024h2.154v-.112a2.674,2.674,0,1,1,5.347,0V379h7.13v-.112a2.674,2.674,0,1,1,5.347,0V379H152.1c.817,0,1.485-.9,1.485-2.024l.371-2.661-.371-5.7c0-1.106-.668-2.024-1.485-2.024H127.437A1.842,1.842,0,0,0,125.952,368.616Zm21.576.975a.16.16,0,0,1,.149-.15h4.011a.16.16,0,0,1,.149.15v7.421l-3.565-2.361-.706-.431Zm-6.926,0a.16.16,0,0,1,.149-.15h3.472a.16.16,0,0,1,.149.15v2.155a.16.16,0,0,1-.149.15H140.75a.16.16,0,0,1-.149-.15Zm-5.663,0a.16.16,0,0,1,.149-.15h3.472a.16.16,0,0,1,.149.15v2.155a.16.16,0,0,1-.149.15h-3.472a.16.16,0,0,1-.149-.15Zm-5.663,0a.161.161,0,0,1,.149-.15H132.9a.16.16,0,0,1,.149.15v2.155a.16.16,0,0,1-.149.15h-3.472a.16.16,0,0,1-.149-.15Z" transform="translate(-125.952 -366.592)"/>
  <path id="路径_1206" data-name="路径 1206" class="cls-3" d="M255.145,655.872a1.705,1.705,0,1,0,1.705,1.705A1.712,1.712,0,0,0,255.145,655.872Zm12.594,0a1.705,1.705,0,1,0,1.705,1.705A1.712,1.712,0,0,0,267.739,655.872Z" transform="translate(-248.873 -645.283)"/>
</svg>
