<svg xmlns="http://www.w3.org/2000/svg" width="18" height="18" viewBox="0 0 18 18">
  <defs>
    <style>
      .cls-1 {
        fill: none;
      }

      .cls-2 {
      }
    </style>
  </defs>
  <g id="cz-gjhf-nor" transform="translate(-1091 -662)">
    <g id="组_1946" data-name="组 1946" transform="translate(1091 662)">
      <path id="路径_1758" data-name="路径 1758" class="cls-1" d="M0,0H18V18H0Z"/>
      <path id="路径_1759" data-name="路径 1759" class="cls-2" d="M3.25,12V7.125a3.375,3.375,0,0,1,6.75,0v5.25a1.875,1.875,0,0,0,3.75,0v-5a2.251,2.251,0,1,1,1.5,0v5a3.375,3.375,0,1,1-6.75,0V7.125a1.875,1.875,0,0,0-3.75,0V12H7L4,15.75,1,12Z" transform="translate(-0.25 -0.75)"/>
    </g>
  </g>
</svg>
