<svg id="user-" xmlns="http://www.w3.org/2000/svg" width="33.981" height="33.981" viewBox="0 0 33.981 33.981">
  <defs>
    <style>
      .cls-1 {
        fill: none;
      }

      .cls-2 {
        fill: #aed4fe;
      }
    </style>
  </defs>
  <path id="路径_1751" data-name="路径 1751" class="cls-1" d="M0,0H33.981V33.981H0Z"/>
  <path id="路径_1752" data-name="路径 1752" class="cls-2" d="M27.07,30.318H7.248A4.248,4.248,0,0,1,3,26.07V6.248A4.248,4.248,0,0,1,7.248,2H27.07a1.416,1.416,0,0,1,1.416,1.416V28.9A1.416,1.416,0,0,1,27.07,30.318Zm-1.416-2.832V24.654H7.248a1.416,1.416,0,0,0,0,2.832ZM15.743,13.327A2.832,2.832,0,1,0,12.911,10.5,2.832,2.832,0,0,0,15.743,13.327ZM11.5,18.991h8.5a4.248,4.248,0,0,0-8.5,0Z" transform="translate(1.248 0.832)"/>
</svg>
