<svg xmlns="http://www.w3.org/2000/svg" width="20" height="20" viewBox="0 0 20 20">
  <g id="电量未连接" transform="translate(-7.004 19.37) rotate(-90)">
    <path id="路径_1314" data-name="路径 1314" d="M17.592,3.06V1.528A1.533,1.533,0,0,0,16.064,0h-13A1.533,1.533,0,0,0,1.536,1.528V7.642A1.533,1.533,0,0,0,3.064,9.17h13a1.533,1.533,0,0,0,1.528-1.528V6.115a.767.767,0,0,0,.766-.766V3.821A.766.766,0,0,0,17.592,3.06Zm-.766.761V7.642a.767.767,0,0,1-.766.766h-13A.767.767,0,0,1,2.3,7.642V1.528A.767.767,0,0,1,3.064.761h13a.767.767,0,0,1,.766.766Z" transform="translate(-0.361 12.004)"/>
    <path id="路径_1315" data-name="路径 1315" d="M189.44,170.5h10.5v6.115h-10.5Z" transform="translate(-186.581 -156.825)"/>
    <path id="路径_1318" data-name="路径 1318" d="M0,0H20V20H0Z" transform="translate(19.37 7.004) rotate(90)" fill="none"/>
  </g>
</svg>
