<svg xmlns="http://www.w3.org/2000/svg" width="120" height="120" viewBox="0 0 120 120">
  <g id="logo" transform="translate(0.5 0.5)">
    <g id="组_2518" data-name="组 2518" transform="translate(-0.5 -0.5)">
      <path id="路径_2498" data-name="路径 2498" d="M55.233-.5H63.07A65.5,65.5,0,0,1,85.712,5.509q30.2,16.016,33.788,50.073V62.9q-2.831,31.59-29.608,48.331A63.738,63.738,0,0,1,63.07,119.5H55.93Q26.056,116.824,9.166,92.156A62.975,62.975,0,0,1-.5,62.9V55.581A60.558,60.558,0,0,1,8.818,27.366Q25.415,2.563,55.233-.5Z" transform="translate(0.5 0.5)" fill="#0b62a3" fill-rule="evenodd"/>
    </g>
    <g id="组_2519" data-name="组 2519" transform="translate(52.446 2.467)">
      <path id="路径_2499" data-name="路径 2499" d="M318.3,17.227q-3.957-.337-7.925-.522-3.441.162-6.88.348a56.963,56.963,0,0,1,14.63-.087A.393.393,0,0,1,318.3,17.227Z" transform="translate(-303.5 -16.537)" fill="#377262" fill-rule="evenodd"/>
    </g>
    <g id="组_2520" data-name="组 2520" transform="translate(49.66 2.983)">
      <path id="路径_2500" data-name="路径 2500" d="M290.287,19.5a6.81,6.81,0,0,1-2.787.348A18.658,18.658,0,0,1,290.287,19.5Z" transform="translate(-287.5 -19.5)" fill="#518564" fill-rule="evenodd"/>
    </g>
    <g id="组_2521" data-name="组 2521" transform="translate(67.25 3.147)">
      <path id="路径_2501" data-name="路径 2501" d="M388.5,20.449a14.794,14.794,0,0,1,2.264.087,4.081,4.081,0,0,1,1.393.61A25.506,25.506,0,0,1,388.5,20.449Z" transform="translate(-388.5 -20.438)" fill="#417374" fill-rule="evenodd"/>
    </g>
    <g id="组_2522" data-name="组 2522" transform="translate(77.874 5.486)">
      <path id="路径_2502" data-name="路径 2502" d="M454.725,36.243q-2.676-1.035-5.225-2.264a7.929,7.929,0,0,1,1.916-.087,1.4,1.4,0,0,1,0,.7.776.776,0,0,0,.784-.261q.448.167.087.522a.58.58,0,0,0,.871-.174,1.617,1.617,0,0,1,.7,1.045A.752.752,0,0,1,454.725,36.243Z" transform="translate(-449.5 -33.869)" fill="#336d86" fill-rule="evenodd"/>
    </g>
    <g id="组_2523" data-name="组 2523" transform="translate(30.676 9.079)">
      <path id="路径_2503" data-name="路径 2503" d="M181.112,54.5a.786.786,0,0,1-.348.522,6.857,6.857,0,0,0-2.264,1.045A6.02,6.02,0,0,1,181.112,54.5Z" transform="translate(-178.5 -54.5)" fill="#c3d544" fill-rule="evenodd"/>
    </g>
    <g id="组_2524" data-name="组 2524" transform="translate(2.809 2.635)">
      <path id="路径_2504" data-name="路径 2504" d="M82.938,18.022a25.506,25.506,0,0,0,3.657.7q3.516.751,6.967,1.742,2.549,1.229,5.225,2.264A57,57,0,0,1,128.221,53.9a12.407,12.407,0,0,0,.871,2.264,40.113,40.113,0,0,1,2.09,8.36,32.322,32.322,0,0,0,.7,5.573q.26,3.524.174,7.141-.265,1.957-.348,4.006a4.658,4.658,0,0,0-.348,1.742,32.862,32.862,0,0,0-.7,3.832q-.541,2.262-1.219,4.528-1.316,3.7-2.787,7.315a1.15,1.15,0,0,0-.522.871,68.215,68.215,0,0,1-8.708,12.888,14.926,14.926,0,0,0-1.916,1.916,53.59,53.59,0,0,1-16.372,11.495,3.845,3.845,0,0,0-1.742.871,50.744,50.744,0,0,1-5.225,1.916,3.827,3.827,0,0,0-1.742.523,1.939,1.939,0,0,0-1.219.348q-2.738.5-5.4,1.045-2.309.2-4.528.523H78.062q-4.707.057-9.4-.174a37.8,37.8,0,0,1-6.792-1.219,1.241,1.241,0,0,0-1.045-.348q-2.459-.585-4.877-1.393a2.027,2.027,0,0,0-1.219-.522,57.021,57.021,0,0,1-17.939-11.06A58.693,58.693,0,0,1,20.413,89.6a1.241,1.241,0,0,0-.348-1.045v-.174a1.939,1.939,0,0,0-.348-1.219,22.044,22.044,0,0,0-.7-3.135q-.262-2.824-.522-5.573-.011-4.879.174-9.753v-.871a.966.966,0,0,0,.261-.522,8.785,8.785,0,0,0,.087-1.742,33.117,33.117,0,0,1,.7-3.832,1.939,1.939,0,0,0,.348-1.219v-.348a3.823,3.823,0,0,0,.7-1.916,31.5,31.5,0,0,1,.784-3.135q.953-2.29,2-4.528a5.168,5.168,0,0,0,1.045-2.09q1.184-2.407,2.612-4.7a2.423,2.423,0,0,0,.871-1.219A53.666,53.666,0,0,1,46.363,25.512a6.857,6.857,0,0,1,2.264-1.045.786.786,0,0,0,.348-.522q2.739-1.286,5.486-2.612,5.411-1.8,10.885-3.135a6.81,6.81,0,0,0,2.787-.348q3.438-.186,6.88-.348Q78.982,17.686,82.938,18.022Z" transform="translate(-18.496 -17.5)" fill="#fbf30a" fill-rule="evenodd"/>
    </g>
    <g id="组_2525" data-name="组 2525" transform="translate(39.036 12.911)">
      <path id="路径_2505" data-name="路径 2505" d="M227.545,76.5a1.549,1.549,0,0,1-1.045.522A1.549,1.549,0,0,1,227.545,76.5Z" transform="translate(-226.5 -76.5)" fill="#457b53" fill-rule="evenodd"/>
    </g>
    <g id="组_2526" data-name="组 2526" transform="translate(77.004 12.214)">
      <path id="路径_2506" data-name="路径 2506" d="M444.5,72.5a1.638,1.638,0,0,1,1.219.522A2.026,2.026,0,0,1,444.5,72.5Z" transform="translate(-444.5 -72.5)" fill="#3f7b59" fill-rule="evenodd"/>
    </g>
    <g id="组_2527" data-name="组 2527" transform="translate(40.951 11.692)">
      <path id="路径_2507" data-name="路径 2507" d="M239.938,69.5a6.094,6.094,0,0,1-2.438.871A9.7,9.7,0,0,1,239.938,69.5Z" transform="translate(-237.5 -69.5)" fill="#3b706a" fill-rule="evenodd"/>
    </g>
    <g id="组_2528" data-name="组 2528" transform="translate(43.564 10.647)">
      <path id="路径_2508" data-name="路径 2508" d="M255.461,63.5a.5.5,0,0,1-.174.435,14.812,14.812,0,0,0-2.787.61A8.186,8.186,0,0,1,255.461,63.5Z" transform="translate(-252.5 -63.5)" fill="#487e6a" fill-rule="evenodd"/>
    </g>
    <g id="组_2529" data-name="组 2529" transform="translate(47.744 9.427)">
      <path id="路径_2509" data-name="路径 2509" d="M282.073,56.5a.393.393,0,0,1-.174.261q-2.7.4-5.4.784A19.27,19.27,0,0,1,282.073,56.5Z" transform="translate(-276.5 -56.5)" fill="#306d67" fill-rule="evenodd"/>
    </g>
    <g id="组_2530" data-name="组 2530" transform="translate(65.509 9.427)">
      <path id="路径_2510" data-name="路径 2510" d="M378.5,56.5a11.893,11.893,0,0,1,3.135.522q-1.475-.164-2.961-.261A.393.393,0,0,1,378.5,56.5Z" transform="translate(-378.5 -56.5)" fill="#336c6d" fill-rule="evenodd"/>
    </g>
    <g id="组_2531" data-name="组 2531" transform="translate(56.626 9.058)">
      <path id="路径_2511" data-name="路径 2511" d="M327.5,54.574a44.69,44.69,0,0,1,5.573-.174q1.689.154,3.309.348Q331.943,54.581,327.5,54.574Z" transform="translate(-327.5 -54.378)" fill="#226a6f" fill-rule="evenodd"/>
    </g>
    <g id="组_2532" data-name="组 2532" transform="translate(9.258 9.233)">
      <path id="路径_2512" data-name="路径 2512" d="M101.5,55.405H102.9q4.443.008,8.882.174a.393.393,0,0,0,.174.261q1.486.1,2.961.261a36.447,36.447,0,0,1,4.006.784,24.463,24.463,0,0,1,4.354,1.48,2.026,2.026,0,0,0,1.219.522A50.563,50.563,0,0,1,150.182,81.53a36.706,36.706,0,0,1,2,4.354,2.452,2.452,0,0,0,.348,1.306.91.91,0,0,0-.174,1.132l.348-.523a1.933,1.933,0,0,1,.435,1.568,1.27,1.27,0,0,1-.348-.523l-.61,1.219.174.174q.436-.7.871,0a.776.776,0,0,0,.261-.348l.522,2.438a.5.5,0,0,1,.435-.174,16.218,16.218,0,0,1,.522,2.612,11.342,11.342,0,0,0,.523,2.438,28.87,28.87,0,0,1,.522,4.18,107.136,107.136,0,0,1-.348,11.147,39.012,39.012,0,0,1-1.219,6.27,29.134,29.134,0,0,1-2.7,7.315q-.593,1.6-1.306,3.135-1.889,2.962-3.657,5.922a.866.866,0,0,0-.7.871,51.48,51.48,0,0,1-27.17,18.287,6.788,6.788,0,0,0-1.742.348.5.5,0,0,1-.522.174,1.939,1.939,0,0,0-1.219.348,15.105,15.105,0,0,0-2.09.348,12.048,12.048,0,0,0-3.483.348h-1.045q-3.049.044-6.1-.087a9.3,9.3,0,0,1,2.438-.348q-.694-.147-1.393-.261a15.918,15.918,0,0,1-4.006.348q-2.619-.291-5.225-.7a40.512,40.512,0,0,1-4.354-1.219,6.952,6.952,0,0,0-2.612-.871Q65.6,143.638,57.7,121.24a32.432,32.432,0,0,1-1.306-5.573,10.28,10.28,0,0,1,.348-2.264l-.174-.871-.348,1.219a10.918,10.918,0,0,1-.261-1.916.393.393,0,0,0-.261-.174,109.806,109.806,0,0,1,0-12.192,15.43,15.43,0,0,1,.348-2.438,12.318,12.318,0,0,0,.61-1.742,5.65,5.65,0,0,0,.087-1.393,33.213,33.213,0,0,1,1.567-5.573,1.229,1.229,0,0,0,.435-.348q.5-1.38.958-2.787A50.523,50.523,0,0,1,81.3,61.414a30.91,30.91,0,0,1,4.006-1.829,1.549,1.549,0,0,0,1.045-.522,1.975,1.975,0,0,1,.871-.348,6.094,6.094,0,0,0,2.438-.871h.174a14.811,14.811,0,0,1,2.787-.61.5.5,0,0,0,.174-.435,3.735,3.735,0,0,0,1.219-.174q2.7-.382,5.4-.784a.393.393,0,0,0,.174-.261A5.373,5.373,0,0,1,101.5,55.405Z" transform="translate(-55.528 -55.385)" fill="#0261a4" fill-rule="evenodd"/>
    </g>
    <g id="组_2533" data-name="组 2533" transform="translate(55.233 8.898)">
      <path id="路径_2513" data-name="路径 2513" d="M326.467,53.641a44.691,44.691,0,0,0-5.573.174H319.5a17.222,17.222,0,0,1,4.006-.348A24.591,24.591,0,0,1,326.467,53.641Z" transform="translate(-319.5 -53.46)" fill="#81ae5a" fill-rule="evenodd"/>
    </g>
    <g id="组_2534" data-name="组 2534" transform="translate(54.71 26.329)">
      <path id="路径_2514" data-name="路径 2514" d="M323.292,153.885a19.017,19.017,0,0,0-6.792.348.394.394,0,0,1,.174-.261,23.849,23.849,0,0,1,6.444-.348A.393.393,0,0,1,323.292,153.885Z" transform="translate(-316.5 -153.544)" fill="#91b352" fill-rule="evenodd"/>
    </g>
    <g id="组_2535" data-name="组 2535" transform="translate(11.517 27.715)">
      <path id="路径_2515" data-name="路径 2515" d="M69.371,161.5a2.423,2.423,0,0,1-.871,1.219A2.423,2.423,0,0,1,69.371,161.5Z" transform="translate(-68.5 -161.5)" fill="#598e5b" fill-rule="evenodd"/>
    </g>
    <g id="组_2536" data-name="组 2536" transform="translate(44.434 26.513)">
      <path id="路径_2516" data-name="路径 2516" d="M274.566,154.757a15.092,15.092,0,0,1,9.666,6.444,16.841,16.841,0,0,1,1.48,3.832q.29,2.7.522,5.4h-8.012a8.643,8.643,0,0,0-.174-2.438,5.683,5.683,0,0,0-2.09-4.093,19.952,19.952,0,0,1-1.916-.958,1.094,1.094,0,0,0-.871-.435,14.142,14.142,0,0,0-3.135,0,.575.575,0,0,0-.348.261,6.127,6.127,0,0,0-3.919,3.832,74.174,74.174,0,0,0-.261,8.534v.174a.318.318,0,0,1-.348-.174,38.478,38.478,0,0,0,.087-6.27q-.174-.348-.348,0a.859.859,0,0,0-.087.522q-.907-.1-.174-.784a.792.792,0,0,1,0-.7,3.152,3.152,0,0,0-.435-1.132l-.174.174a77.134,77.134,0,0,0,.087,8.708,34.229,34.229,0,0,1-4.877-.174q-.217-4.048-.261-8.186a.635.635,0,0,0-.261-.174,8.475,8.475,0,0,0-.958,1.916q-.044,3.18-.261,6.27V166.6a5.449,5.449,0,0,1,.261-1.742,6.726,6.726,0,0,0,.871-2.264,7.266,7.266,0,0,0,1.567-2.438,48.714,48.714,0,0,1,3.57-3.4,16.445,16.445,0,0,1,10.8-2Z" transform="translate(-257.497 -154.6)" fill="#f5f119" fill-rule="evenodd"/>
    </g>
    <g id="组_2537" data-name="组 2537" transform="translate(7.86 33.636)">
      <path id="路径_2517" data-name="路径 2517" d="M48.545,195.5a5.168,5.168,0,0,1-1.045,2.09,13.574,13.574,0,0,1,.61-1.742A1.229,1.229,0,0,1,48.545,195.5Z" transform="translate(-47.5 -195.5)" fill="#82a74f" fill-rule="evenodd"/>
    </g>
    <g id="组_2538" data-name="组 2538" transform="translate(67.425 32.069)">
      <path id="路径_2518" data-name="路径 2518" d="M389.674,186.5a6.36,6.36,0,0,1,2,2.438,26.622,26.622,0,0,0,1.219,2.612q.089.883.261,1.742a4.808,4.808,0,0,0-.871-.261.859.859,0,0,1,.523-.087v-.7h-.7a.853.853,0,0,0-.435-.871l-.174.174a1.374,1.374,0,0,1-.348-.7l-.435.522-.174-.261a1.365,1.365,0,0,0,.348-.958.859.859,0,0,1-.522-.087.724.724,0,0,0,.087-.784,2.523,2.523,0,0,1-.958-.871l.174-.174q.753.79,1.045-.261l-.174-.261-.348.348q-.324-.394.174-.61Q389.224,187.492,389.674,186.5Z" transform="translate(-389.5 -186.5)" fill="#13639c" fill-rule="evenodd"/>
    </g>
    <g id="组_2539" data-name="组 2539" transform="translate(46.351 28.419)">
      <path id="路径_2519" data-name="路径 2519" d="M289.748,169.193q-.45.993.7.958-.5.216-.174.61l.348-.348.174.261q-.292,1.051-1.045.261l-.174.174a2.523,2.523,0,0,0,.958.871.724.724,0,0,1-.087.784.86.86,0,0,0,.523.087,1.365,1.365,0,0,1-.348.958l.174.261.435-.523a1.374,1.374,0,0,0,.348.7l.174-.174a.853.853,0,0,1,.435.871h.7v.7a.86.86,0,0,0-.523.087,4.808,4.808,0,0,1,.871.261v1.567h-4.006a7.473,7.473,0,0,1,0-2.7,1.468,1.468,0,0,0-.7-.087,8.137,8.137,0,0,0-6.618-5.225.394.394,0,0,0-.174-.261,3.7,3.7,0,0,0-2.787.435q-1.024.3-2.09.61a9.252,9.252,0,0,0-4.18,6.531q-.26,3.611-.174,7.315h-.7a12.688,12.688,0,0,0-2.961-.174q.044-3.833-.087-7.663a.394.394,0,0,1-.261.174,4.778,4.778,0,0,0,.348-1.916,12.229,12.229,0,0,1,9.057-8.8,16.292,16.292,0,0,1,7.837.522,5.323,5.323,0,0,0,2.09,1.045A9.548,9.548,0,0,1,289.748,169.193Z" transform="translate(-268.5 -165.543)" fill="#0861a3" fill-rule="evenodd"/>
    </g>
    <g id="组_2540" data-name="组 2540" transform="translate(56.626 34.333)">
      <path id="路径_2520" data-name="路径 2520" d="M331.854,200.022a9.66,9.66,0,0,0-4.354-.174.576.576,0,0,1,.348-.261,14.145,14.145,0,0,1,3.135,0A1.1,1.1,0,0,1,331.854,200.022Z" transform="translate(-327.5 -199.5)" fill="#3a7366" fill-rule="evenodd"/>
    </g>
    <g id="组_2541" data-name="组 2541" transform="translate(56.8 32.058)">
      <path id="路径_2521" data-name="路径 2521" d="M331.461,186.8a18.335,18.335,0,0,0-2.961.174,3.7,3.7,0,0,1,2.787-.435A.394.394,0,0,1,331.461,186.8Z" transform="translate(-328.5 -186.439)" fill="#316871" fill-rule="evenodd"/>
    </g>
    <g id="组_2542" data-name="组 2542" transform="translate(112.533 39.036)">
      <path id="路径_2522" data-name="路径 2522" d="M648.5,226.5a1.511,1.511,0,0,1,.523.7,1.262,1.262,0,0,0,.435-.348,1.734,1.734,0,0,1-.261.958,8.282,8.282,0,0,1,.174.958A12.4,12.4,0,0,1,648.5,226.5Z" transform="translate(-648.5 -226.5)" fill="#407477" fill-rule="evenodd"/>
    </g>
    <g id="组_2543" data-name="组 2543" transform="translate(12.04 39.036)">
      <path id="路径_2523" data-name="路径 2523" d="M72.893,226.5q-.461,1.407-.958,2.787a1.229,1.229,0,0,1-.435.348A17.728,17.728,0,0,1,72.893,226.5Z" transform="translate(-71.5 -226.5)" fill="#48776d" fill-rule="evenodd"/>
    </g>
    <g id="组_2544" data-name="组 2544" transform="translate(66.38 37.632)">
      <path id="路径_2524" data-name="路径 2524" d="M383.5,218.453a1.469,1.469,0,0,1,.7.087,7.471,7.471,0,0,0,0,2.7H388.2v-1.568a10.175,10.175,0,0,1,.348,1.742h-4.528A11.318,11.318,0,0,0,383.5,218.453Z" transform="translate(-383.5 -218.443)" fill="#326a6a" fill-rule="evenodd"/>
    </g>
    <g id="组_2545" data-name="组 2545" transform="translate(46.165 37.468)">
      <path id="路径_2525" data-name="路径 2525" d="M267.971,217.5a4.778,4.778,0,0,1-.348,1.916v7.663h4.006a25.183,25.183,0,0,1-4.18.174q-.044-4.181.087-8.36A6.057,6.057,0,0,1,267.971,217.5Z" transform="translate(-267.437 -217.5)" fill="#226764" fill-rule="evenodd"/>
    </g>
    <g id="组_2546" data-name="组 2546" transform="translate(13.956 38.687)">
      <path id="路径_2526" data-name="路径 2526" d="M120.991,233.034a19.3,19.3,0,0,0,3.657.174V240q-17.634.261-35.356.174a25.187,25.187,0,0,0,.174,4.18,77.9,77.9,0,0,0,9.231,2.787,6.45,6.45,0,0,0,2.264.7q2.178.654,4.354,1.48.876.119,1.742.261a6.321,6.321,0,0,0,2.787.871q1.4.38,2.787.871a12.465,12.465,0,0,0,2.787.871,10,10,0,0,0,1.567.348.8.8,0,0,0,.871.348,8.642,8.642,0,0,0-.174-2.438,9.9,9.9,0,0,0-2.612-.174v-6.618h9.4v18.113l-1.393-.174-2.09-.348a46.466,46.466,0,0,0,.174,5.225,2.262,2.262,0,0,0,.348,1.48,2.477,2.477,0,0,1-.871.958,10.383,10.383,0,0,1-.087-1.045,2.368,2.368,0,0,1-.958-1.393,53.5,53.5,0,0,1-.174-6.1,7.888,7.888,0,0,0-2.264-.522l-1.916-.348v-.174q-.424-.647-1.045-.087.426,4.641.61,9.318a2.68,2.68,0,0,1-.522,1.045,1.9,1.9,0,0,0-.958-1.045q-.217-1.216-.435-2.438-.044-3.79-.261-7.489a1.94,1.94,0,0,0-1.219-.348q-5.193-1.517-10.45-3.048a.394.394,0,0,1-.174-.261q-.851-.522-1.742-1.045l-.348.174a2.74,2.74,0,0,0-1.829-1.045.755.755,0,0,0-.522.348,1.8,1.8,0,0,0-2.09-.522,4.48,4.48,0,0,1-.958-.261l.348-.174q-1.145-.076-2.264-.261a1.674,1.674,0,0,1-1.045-.174A5.54,5.54,0,0,0,88.6,251.5l-5.573-1.742a.5.5,0,0,0-.522-.174v-16.2q15.329.173,30.479-.348.217-3.089.261-6.27a8.475,8.475,0,0,1,.958-1.916.635.635,0,0,1,.261.174q.044,4.138.261,8.186a34.227,34.227,0,0,0,4.877.174,77.134,77.134,0,0,1-.087-8.708l.174-.174a3.151,3.151,0,0,1,.435,1.132.793.793,0,0,0,0,.7q-.733.68.174.784a.859.859,0,0,1,.087-.522q.174-.348.348,0a38.476,38.476,0,0,1-.087,6.27A.318.318,0,0,0,120.991,233.034Z" transform="translate(-82.5 -224.5)" fill="#fcf308" fill-rule="evenodd"/>
    </g>
    <g id="组_2547" data-name="组 2547" transform="translate(46.176 39.732)">
      <path id="路径_2527" data-name="路径 2527" d="M271.854,230.5v7.663H267.5v-.174a25.183,25.183,0,0,0,4.18-.174Q271.594,234.111,271.854,230.5Z" transform="translate(-267.5 -230.5)" fill="#3a7047" fill-rule="evenodd"/>
    </g>
    <g id="组_2548" data-name="组 2548" transform="translate(46.351 39.21)">
      <path id="路径_2528" data-name="路径 2528" d="M271.809,235.337H268.5v-7.663a.394.394,0,0,0,.261-.174q.131,3.831.087,7.663A12.688,12.688,0,0,1,271.809,235.337Z" transform="translate(-268.5 -227.5)" fill="#005fc8" fill-rule="evenodd"/>
    </g>
    <g id="组_2549" data-name="组 2549" transform="translate(64.986 36.946)">
      <path id="路径_2529" data-name="路径 2529" d="M383.163,214.5a.575.575,0,0,1,.261.348,25.21,25.21,0,0,1,.435,5.4h-8.186a.154.154,0,0,1-.174-.174v-2.612a8.641,8.641,0,0,1,.174,2.438h8.012Q383.453,217.2,383.163,214.5Z" transform="translate(-375.5 -214.5)" fill="#9cbe4e" fill-rule="evenodd"/>
    </g>
    <g id="组_2550" data-name="组 2550" transform="translate(64.29 39.21)">
      <path id="路径_2530" data-name="路径 2530" d="M372.2,230.809a.154.154,0,0,0,.174.174.966.966,0,0,0,.523.261.535.535,0,0,1-.7.174,1.683,1.683,0,0,1-.7-1.132q.192-1.385.261-2.787Q372.056,229.157,372.2,230.809Z" transform="translate(-371.5 -227.5)" fill="#0261b2" fill-rule="evenodd"/>
    </g>
    <g id="组_2551" data-name="组 2551" transform="translate(105.915 39.732)">
      <path id="路径_2531" data-name="路径 2531" d="M610.5,230.5a39.706,39.706,0,0,1,2.264,6.27.5.5,0,0,0-.435.174l-.522-2.438a.777.777,0,0,1-.261.348q-.436-.7-.871,0l-.174-.174.61-1.219a1.27,1.27,0,0,0,.348.522,1.932,1.932,0,0,0-.435-1.568l-.348.523a.909.909,0,0,1,.174-1.132A2.452,2.452,0,0,1,610.5,230.5Z" transform="translate(-610.498 -230.5)" fill="#26688f" fill-rule="evenodd"/>
    </g>
    <g id="组_2552" data-name="组 2552" transform="translate(4.377 43.39)">
      <path id="路径_2532" data-name="路径 2532" d="M28.2,251.5a3.823,3.823,0,0,1-.7,1.916A6.566,6.566,0,0,1,28.2,251.5Z" transform="translate(-27.5 -251.5)" fill="#94b752" fill-rule="evenodd"/>
    </g>
    <g id="组_2553" data-name="组 2553" transform="translate(4.027 45.654)">
      <path id="路径_2533" data-name="路径 2533" d="M25.842,264.5a1.939,1.939,0,0,1-.348,1.219A1.939,1.939,0,0,1,25.842,264.5Z" transform="translate(-25.492 -264.5)" fill="#75a24e" fill-rule="evenodd"/>
    </g>
    <g id="组_2554" data-name="组 2554" transform="translate(13.782 38.861)">
      <path id="路径_2534" data-name="路径 2534" d="M111.979,225.5v8.36H81.5q15.108-.261,30.3-.174Q111.719,229.547,111.979,225.5Z" transform="translate(-81.5 -225.5)" fill="#186373" fill-rule="evenodd"/>
    </g>
    <g id="组_2555" data-name="组 2555" transform="translate(62.374 47.025)">
      <path id="路径_2535" data-name="路径 2535" d="M360.5,272.571q21.2-.261,42.5-.174.086,3.617-.174,7.141v-6.792Q381.705,272.484,360.5,272.571Z" transform="translate(-360.5 -272.375)" fill="#186577" fill-rule="evenodd"/>
    </g>
    <g id="组_2556" data-name="组 2556" transform="translate(62.178 47.2)">
      <path id="路径_2536" data-name="路径 2536" d="M359.573,273.4q21.205-.087,42.322.174H359.573v6.792H359.4Q359.313,276.834,359.573,273.4Z" transform="translate(-359.377 -273.375)" fill="#5c8d38" fill-rule="evenodd"/>
    </g>
    <g id="组_2557" data-name="组 2557" transform="translate(13.782 38.513)">
      <path id="路径_2537" data-name="路径 2537" d="M112.153,223.5v8.708q-15.15.521-30.479.348v16.2a.5.5,0,0,1,.522.174h-.7v-16.72h30.479v-8.36A.282.282,0,0,1,112.153,223.5Z" transform="translate(-81.5 -223.5)" fill="#b8d03e" fill-rule="evenodd"/>
    </g>
    <g id="组_2558" data-name="组 2558" transform="translate(62.374 47.396)">
      <path id="路径_2538" data-name="路径 2538" d="M402.822,274.5v6.792a6.375,6.375,0,0,1-2.09.174v9.579h-.522a69.764,69.764,0,0,0,.348-9.753h2.09v-6.618H360.674v6.618q16.59-.087,33.091.174-16.677.087-33.266-.174V274.5Z" transform="translate(-360.5 -274.5)" fill="#cde146" fill-rule="evenodd"/>
    </g>
    <g id="组_2559" data-name="组 2559" transform="translate(62.548 47.57)">
      <path id="路径_2539" data-name="路径 2539" d="M401.036,291.872q-8.516,2.6-17.068,5.225a18.624,18.624,0,0,0-3.309,1.219,50.605,50.605,0,0,0-6.27,1.916,39.592,39.592,0,0,0-5.051,1.567,1.939,1.939,0,0,0-1.219.348,51.831,51.831,0,0,0-5.573,1.742H361.5V285.776h6.618q-.086,4.487.174,8.882a.8.8,0,0,0,.7-.174q2.106-.543,4.18-1.219a5.014,5.014,0,0,0,3.309-1.045q8.466-2.792,17.068-5.4a3.348,3.348,0,0,1,1.045-.174v-4.354q-16.5-.261-33.091-.174V275.5h41.974v6.618h-2.09A69.759,69.759,0,0,1,401.036,291.872Z" transform="translate(-361.5 -275.5)" fill="#fdf404" fill-rule="evenodd"/>
    </g>
    <g id="组_2560" data-name="组 2560" transform="translate(9.776 47.744)">
      <path id="路径_2540" data-name="路径 2540" d="M59.2,276.5a5.649,5.649,0,0,1-.087,1.393,12.315,12.315,0,0,1-.61,1.742A9.372,9.372,0,0,1,59.2,276.5Z" transform="translate(-58.5 -276.5)" fill="#326d6f" fill-rule="evenodd"/>
    </g>
    <g id="组_2561" data-name="组 2561" transform="translate(52.446 47.027)">
      <path id="路径_2541" data-name="路径 2541" d="M303.5,272.406a22.668,22.668,0,0,1,3.919.174,46.72,46.72,0,0,1-.087,6.967h-.174v-6.792a19.305,19.305,0,0,1-3.657-.174Z" transform="translate(-303.5 -272.386)" fill="#477867" fill-rule="evenodd"/>
    </g>
    <g id="组_2562" data-name="组 2562" transform="translate(108.702 48.615)">
      <path id="路径_2542" data-name="路径 2542" d="M626.5,281.5a4.03,4.03,0,0,1,.523,2.438A11.345,11.345,0,0,1,626.5,281.5Z" transform="translate(-626.5 -281.5)" fill="#427a5c" fill-rule="evenodd"/>
    </g>
    <g id="组_2563" data-name="组 2563" transform="translate(2.983 50.705)">
      <path id="路径_2543" data-name="路径 2543" d="M19.848,293.5a8.785,8.785,0,0,1-.087,1.742.966.966,0,0,1-.261.523A11.946,11.946,0,0,1,19.848,293.5Z" transform="translate(-19.5 -293.5)" fill="#98be51" fill-rule="evenodd"/>
    </g>
    <g id="组_2564" data-name="组 2564" transform="translate(115.494 49.66)">
      <path id="路径_2544" data-name="路径 2544" d="M665.5,287.5a45.111,45.111,0,0,1,.7,5.573A32.335,32.335,0,0,1,665.5,287.5Z" transform="translate(-665.5 -287.5)" fill="#adc74d" fill-rule="evenodd"/>
    </g>
    <g id="组_2565" data-name="组 2565" transform="translate(109.224 51.053)">
      <path id="路径_2545" data-name="路径 2545" d="M629.5,295.5a6.746,6.746,0,0,1,.435.871q.17,1.653.261,3.309h-.174A28.866,28.866,0,0,0,629.5,295.5Z" transform="translate(-629.5 -295.5)" fill="#b4ce4e" fill-rule="evenodd"/>
    </g>
    <g id="组_2566" data-name="组 2566" transform="translate(20.727 54.188)">
      <path id="路径_2546" data-name="路径 2546" d="M156.756,313.5h.174q-17.414.522-35.007.348a8.917,8.917,0,0,0-.348,3.483v.522a25.187,25.187,0,0,1-.174-4.18Q139.122,313.761,156.756,313.5Z" transform="translate(-121.379 -313.5)" fill="#16666f" fill-rule="evenodd"/>
    </g>
    <g id="组_2567" data-name="组 2567" transform="translate(62.2 54.188)">
      <path id="路径_2547" data-name="路径 2547" d="M359.5,313.5h.174q16.589.261,33.266.174v4.354a3.347,3.347,0,0,0-1.045.174.8.8,0,0,1,.871-.348,23.194,23.194,0,0,0-.174-4.006q-.434,7.307-.522,0Q375.695,314.022,359.5,313.5Z" transform="translate(-359.5 -313.5)" fill="#196674" fill-rule="evenodd"/>
    </g>
    <g id="组_2568" data-name="组 2568" transform="translate(20.883 54.536)">
      <path id="路径_2548" data-name="路径 2548" d="M122.661,315.5a8.917,8.917,0,0,1-.348,3.483A8.916,8.916,0,0,1,122.661,315.5Z" transform="translate(-122.273 -315.5)" fill="#0060c1" fill-rule="evenodd"/>
    </g>
    <g id="组_2569" data-name="组 2569" transform="translate(2.458 54.362)">
      <path id="路径_2549" data-name="路径 2549" d="M16.835,314.5q-.211,3.915-.174,7.837a53.954,53.954,0,0,1-.087-7.489A.576.576,0,0,1,16.835,314.5Z" transform="translate(-16.483 -314.5)" fill="#246769" fill-rule="evenodd"/>
    </g>
    <g id="组_2570" data-name="组 2570" transform="translate(46.155 57.671)">
      <path id="路径_2550" data-name="路径 2550" d="M277.326,333.5q.172,9.409-.348,18.636a3.319,3.319,0,0,1-1.219-.522l1.393.174V333.674h-9.4a66.356,66.356,0,0,0-.174,6.792q-.26-3.437-.174-6.967Z" transform="translate(-267.377 -333.5)" fill="#b5d14d" fill-rule="evenodd"/>
    </g>
    <g id="组_2571" data-name="组 2571" transform="translate(46.329 57.845)">
      <path id="路径_2551" data-name="路径 2551" d="M268.573,334.5v6.618a9.9,9.9,0,0,1,2.612.174H268.4A66.33,66.33,0,0,1,268.573,334.5Z" transform="translate(-268.378 -334.5)" fill="#def050" fill-rule="evenodd"/>
    </g>
    <g id="组_2572" data-name="组 2572" transform="translate(55.755 57.671)">
      <path id="路径_2552" data-name="路径 2552" d="M322.848,333.5q.261,9.36.174,18.81a.5.5,0,0,1-.523-.174Q323.021,342.909,322.848,333.5Z" transform="translate(-322.5 -333.5)" fill="#3f7740" fill-rule="evenodd"/>
    </g>
    <g id="组_2573" data-name="组 2573" transform="translate(56.441 57.496)">
      <path id="路径_2553" data-name="路径 2553" d="M326.448,332.494a.478.478,0,0,1,.522.348q-.178,8.7-.348,17.417a.955.955,0,0,0,.7,1.045.474.474,0,0,1-.784-.174Q326.4,341.812,326.448,332.494Z" transform="translate(-326.437 -332.493)" fill="#005fb2" fill-rule="evenodd"/>
    </g>
    <g id="组_2574" data-name="组 2574" transform="translate(62.178 57.671)">
      <path id="路径_2554" data-name="路径 2554" d="M359.572,333.5v18.462a.8.8,0,0,0,.7-.174h.522a1.606,1.606,0,0,1-1.393.348Q359.311,342.773,359.572,333.5Z" transform="translate(-359.376 -333.5)" fill="#2d684c" fill-rule="evenodd"/>
    </g>
    <g id="组_2575" data-name="组 2575" transform="translate(62.374 57.671)">
      <path id="路径_2555" data-name="路径 2555" d="M360.5,333.5h6.967v9.057q-.261-4.4-.174-8.882h-6.618v18.113h.522a.8.8,0,0,1-.7.174Z" transform="translate(-360.5 -333.5)" fill="#c1de60" fill-rule="evenodd"/>
    </g>
    <g id="组_2576" data-name="组 2576" transform="translate(69.34 57.671)">
      <path id="路径_2556" data-name="路径 2556" d="M400.5,333.5q.26,4.4.174,8.882h.522a.8.8,0,0,1-.7.174Z" transform="translate(-400.5 -333.5)" fill="#2a6744" fill-rule="evenodd"/>
    </g>
    <g id="组_2577" data-name="组 2577" transform="translate(2.616 53.84)">
      <path id="路径_2557" data-name="路径 2557" d="M17.757,311.5q-.185,4.874-.174,9.753a2.892,2.892,0,0,1-.174-1.393q-.037-3.923.174-7.837A.5.5,0,0,1,17.757,311.5Z" transform="translate(-17.39 -311.5)" fill="#b1c63c" fill-rule="evenodd"/>
    </g>
    <g id="组_2578" data-name="组 2578" transform="translate(30.153 61.329)">
      <path id="路径_2558" data-name="路径 2558" d="M175.5,354.5a6.131,6.131,0,0,1,2.264.7A6.449,6.449,0,0,1,175.5,354.5Z" transform="translate(-175.5 -354.5)" fill="#397269" fill-rule="evenodd"/>
    </g>
    <g id="组_2579" data-name="组 2579" transform="translate(109.398 55.233)">
      <path id="路径_2559" data-name="路径 2559" d="M630.848,319.5h.174a102.3,102.3,0,0,1-.348,11.147H630.5A107.144,107.144,0,0,0,630.848,319.5Z" transform="translate(-630.5 -319.5)" fill="#26686e" fill-rule="evenodd"/>
    </g>
    <g id="组_2580" data-name="组 2580" transform="translate(8.916 53.317)">
      <path id="路径_2560" data-name="路径 2560" d="M54.074,308.5a109.808,109.808,0,0,0,0,12.192A36.575,36.575,0,0,1,54.074,308.5Z" transform="translate(-53.563 -308.5)" fill="#447c69" fill-rule="evenodd"/>
    </g>
    <g id="组_2582" data-name="组 2582" transform="translate(38.513 63.767)">
      <path id="路径_2562" data-name="路径 2562" d="M223.5,368.5a4.827,4.827,0,0,1,1.48.348,2.349,2.349,0,0,0,.7-.348q.477.133.087.435.28.223.522.435A6.321,6.321,0,0,1,223.5,368.5Z" transform="translate(-223.5 -368.5)" fill="#326a7d" fill-rule="evenodd"/>
    </g>
    <g id="组_2583" data-name="组 2583" transform="translate(46.351 64.638)">
      <path id="路径_2563" data-name="路径 2563" d="M268.5,373.5h2.787a7.463,7.463,0,0,1-.174,2.264v-2.09A9.9,9.9,0,0,1,268.5,373.5Z" transform="translate(-268.5 -373.5)" fill="#3b805d" fill-rule="evenodd"/>
    </g>
    <g id="组_2584" data-name="组 2584" transform="translate(74.217 64.29)">
      <path id="路径_2564" data-name="路径 2564" d="M431.809,371.5a5.015,5.015,0,0,1-3.309,1.045A13.417,13.417,0,0,1,431.809,371.5Z" transform="translate(-428.5 -371.5)" fill="#c0d341" fill-rule="evenodd"/>
    </g>
    <g id="组_2585" data-name="组 2585" transform="translate(20.052 65.683)">
      <path id="路径_2565" data-name="路径 2565" d="M117.5,379.5a5.541,5.541,0,0,1,1.742.523A2.117,2.117,0,0,1,117.5,379.5Z" transform="translate(-117.5 -379.5)" fill="#598a50" fill-rule="evenodd"/>
    </g>
    <g id="组_2586" data-name="组 2586" transform="translate(116.017 62.374)">
      <path id="路径_2566" data-name="路径 2566" d="M668.848,360.5q.043,1.831-.087,3.657a.575.575,0,0,1-.261.348Q668.584,362.457,668.848,360.5Z" transform="translate(-668.5 -360.5)" fill="#236777" fill-rule="evenodd"/>
    </g>
    <g id="组_2587" data-name="组 2587" transform="translate(44.086 65.509)">
      <path id="路径_2567" data-name="路径 2567" d="M255.5,378.5a9.369,9.369,0,0,0,2.787.348v.522A12.466,12.466,0,0,1,255.5,378.5Z" transform="translate(-255.5 -378.5)" fill="#3c7476" fill-rule="evenodd"/>
    </g>
    <g id="组_2588" data-name="组 2588" transform="translate(48.44 64.638)">
      <path id="路径_2568" data-name="路径 2568" d="M281.2,373.5a8.641,8.641,0,0,1,.174,2.438.8.8,0,0,1-.871-.348,1,1,0,0,1,.523.174A7.462,7.462,0,0,0,281.2,373.5Z" transform="translate(-280.5 -373.5)" fill="#95bc5b" fill-rule="evenodd"/>
    </g>
    <g id="组_2589" data-name="组 2589" transform="translate(2.789 63.593)">
      <path id="路径_2569" data-name="路径 2569" d="M18.406,367.5q.26,2.749.522,5.573A20.2,20.2,0,0,1,18.406,367.5Z" transform="translate(-18.387 -367.5)" fill="#42796c" fill-rule="evenodd"/>
    </g>
    <g id="组_2590" data-name="组 2590" transform="translate(9.427 65.509)">
      <path id="路径_2570" data-name="路径 2570" d="M56.5,378.5a.393.393,0,0,1,.261.174,10.918,10.918,0,0,0,.261,1.916l.348-1.219.174.871a10.28,10.28,0,0,0-.348,2.264A13.826,13.826,0,0,1,56.5,378.5Z" transform="translate(-56.5 -378.5)" fill="#226489" fill-rule="evenodd"/>
    </g>
    <g id="组_2591" data-name="组 2591" transform="translate(22.838 66.38)">
      <path id="路径_2571" data-name="路径 2571" d="M133.5,383.5q1.119.185,2.264.261l-.348.174a4.479,4.479,0,0,0,.958.261,1.8,1.8,0,0,1,2.09.522.755.755,0,0,1,.522-.348,2.74,2.74,0,0,1,1.829,1.045l.348-.174q.891.522,1.742,1.045-3.5-.831-6.967-1.829a5.162,5.162,0,0,0-2.264-.7A.393.393,0,0,1,133.5,383.5Z" transform="translate(-133.5 -383.5)" fill="#dee52f" fill-rule="evenodd"/>
    </g>
    <g id="组_2592" data-name="组 2592" transform="translate(114.972 68.121)">
      <path id="路径_2572" data-name="路径 2572" d="M663.2,393.5a10.241,10.241,0,0,1-.7,3.832A32.861,32.861,0,0,1,663.2,393.5Z" transform="translate(-662.5 -393.5)" fill="#548065" fill-rule="evenodd"/>
    </g>
    <g id="组_2593" data-name="组 2593" transform="translate(81.706 69.166)">
      <path id="路径_2573" data-name="路径 2573" d="M474.809,399.5a1.982,1.982,0,0,1-1.045.784l.7.174a1.333,1.333,0,0,1-1.48-.087,8.5,8.5,0,0,1-1.48.348A18.619,18.619,0,0,1,474.809,399.5Z" transform="translate(-471.5 -399.5)" fill="#366d80" fill-rule="evenodd"/>
    </g>
    <g id="组_2594" data-name="组 2594" transform="translate(108.179 66.38)">
      <path id="路径_2574" data-name="路径 2574" d="M624.719,383.5h.174a25.933,25.933,0,0,1-.958,6.1.5.5,0,0,1-.435.174A39.013,39.013,0,0,0,624.719,383.5Z" transform="translate(-623.5 -383.5)" fill="#cfde3d" fill-rule="evenodd"/>
    </g>
    <g id="组_2595" data-name="组 2595" transform="translate(42.867 72.474)">
      <path id="路径_2575" data-name="路径 2575" d="M248.5,418.493a1.939,1.939,0,0,1,1.219.348A1.512,1.512,0,0,1,248.5,418.493Z" transform="translate(-248.5 -418.492)" fill="#4b865a" fill-rule="evenodd"/>
    </g>
    <g id="组_2596" data-name="组 2596" transform="translate(113.753 71.953)">
      <path id="路径_2576" data-name="路径 2576" d="M656.719,415.5a2.939,2.939,0,0,0,.174,1.393l.348-.348.174.261a4.9,4.9,0,0,1-.61.784q-.083-.47-.348-.174a12.039,12.039,0,0,0-.435,3.135.906.906,0,0,0-.522-.522Q656.178,417.762,656.719,415.5Z" transform="translate(-655.5 -415.5)" fill="#29688c" fill-rule="evenodd"/>
    </g>
    <g id="组_2597" data-name="组 2597" transform="translate(4.027 72.301)">
      <path id="路径_2577" data-name="路径 2577" d="M25.493,417.5a1.939,1.939,0,0,1,.348,1.219A1.939,1.939,0,0,1,25.493,417.5Z" transform="translate(-25.492 -417.5)" fill="#417961" fill-rule="evenodd"/>
    </g>
    <g id="组_2598" data-name="组 2598" transform="translate(70.385 72.301)">
      <path id="路径_2578" data-name="路径 2578" d="M411.551,417.5a1.229,1.229,0,0,1-.348.435,18.844,18.844,0,0,0-2.438.61l.523.348a1.356,1.356,0,0,1-1.567.261l.871-.174a.682.682,0,0,0-.522-.261,5.815,5.815,0,0,1-1.567.348A39.6,39.6,0,0,1,411.551,417.5Z" transform="translate(-406.5 -417.5)" fill="#2a6987" fill-rule="evenodd"/>
    </g>
    <g id="组_2599" data-name="组 2599" transform="translate(69.166 73.867)">
      <path id="路径_2579" data-name="路径 2579" d="M400.719,426.493l-.523.348h-.7A1.94,1.94,0,0,1,400.719,426.493Z" transform="translate(-399.5 -426.492)" fill="#427b53" fill-rule="evenodd"/>
    </g>
    <g id="组_2600" data-name="组 2600" transform="translate(4.368 73.694)">
      <path id="路径_2580" data-name="路径 2580" d="M27.46,425.5a1.241,1.241,0,0,1,.348,1.045A1.241,1.241,0,0,1,27.46,425.5Z" transform="translate(-27.452 -425.5)" fill="#4f8360" fill-rule="evenodd"/>
    </g>
    <g id="组_2601" data-name="组 2601" transform="translate(46.309 73.694)">
      <path id="路径_2581" data-name="路径 2581" d="M268.651,425.5a62.973,62.973,0,0,1-.174,6.618H268.3A31.648,31.648,0,0,1,268.651,425.5Z" transform="translate(-268.261 -425.5)" fill="#005fc9" fill-rule="evenodd"/>
    </g>
    <g id="组_2603" data-name="组 2603" transform="translate(46.155 73.52)">
      <path id="路径_2583" data-name="路径 2583" d="M267.921,424.5v.174a31.646,31.646,0,0,0-.348,6.618,66.346,66.346,0,0,1-.174-6.792Z" transform="translate(-267.378 -424.5)" fill="#21675c" fill-rule="evenodd"/>
    </g>
    <g id="组_2604" data-name="组 2604" transform="translate(63.593 74.217)">
      <path id="路径_2584" data-name="路径 2584" d="M373.073,428.5h.7a.575.575,0,0,1-.348.261,7.372,7.372,0,0,0,2.438.261,5.711,5.711,0,0,1-3.222-.174l-.435.087q.623.074.348.523,1.739.131,3.483.087a1.228,1.228,0,0,1,1.132-1.045l.435.087a1,1,0,0,0-1.045.958,4.03,4.03,0,0,0,1.393-.348v.523q-2.435.153-4.877.348,2.259.217,4.528.261l-.174.174q-3.743.131-7.489.087a.539.539,0,0,1,.174-.522,8.145,8.145,0,0,0,2.264.174v-.523a5.073,5.073,0,0,1-1.568.087l.174-.174a2.838,2.838,0,0,0-2.09.435l.522.435-.435.087a3.023,3.023,0,0,0-1.48-.348A51.833,51.833,0,0,1,373.073,428.5Z" transform="translate(-367.5 -428.5)" fill="#0d629a" fill-rule="evenodd"/>
    </g>
    <g id="组_2605" data-name="组 2605" transform="translate(64.812 76.634)">
      <path id="路径_2585" data-name="路径 2585" d="M383.034,442.573h-8.36v2.438a1.673,1.673,0,0,1-.174,1.045V442.4Q378.813,442.312,383.034,442.573Z" transform="translate(-374.5 -442.377)" fill="#1d6670" fill-rule="evenodd"/>
    </g>
    <g id="组_2606" data-name="组 2606" transform="translate(64.986 76.829)">
      <path id="路径_2586" data-name="路径 2586" d="M383.86,443.5a7.463,7.463,0,0,1-.174,2.264v-2.09h-8.012a7.464,7.464,0,0,1-.174,2.264V443.5Z" transform="translate(-375.5 -443.5)" fill="#b8d047" fill-rule="evenodd"/>
    </g>
    <g id="组_2607" data-name="组 2607" transform="translate(46.525 73.694)">
      <path id="路径_2587" data-name="路径 2587" d="M269.674,425.5l1.916.348a9.363,9.363,0,0,0,1.916.7,41.389,41.389,0,0,0,.348,6.792,3.14,3.14,0,0,0,1.045,1.916q1.072,1.2,2.264,2.351a9.711,9.711,0,0,0,2.264.958.394.394,0,0,0,.174.261l2.09.087a6.063,6.063,0,0,0,2.09-.348,8.939,8.939,0,0,0,5.573-4.877.332.332,0,0,0,.348-.261,10.632,10.632,0,0,1,.348-1.306,8.68,8.68,0,0,1,.784,2.09,4.567,4.567,0,0,0,.261-2.09h.522q-.031,3.8.435,0l.174.348a.569.569,0,0,1,.61-.348,5.059,5.059,0,0,0,.348,1.393l.174-.435a4.127,4.127,0,0,1-.261-1.655.764.764,0,0,0,.61.174v-.522a2.4,2.4,0,0,1-1.567,0,5.419,5.419,0,0,1,1.916-.174v1.219a.859.859,0,0,0-.523.087,4.364,4.364,0,0,1,0,2.177,19.218,19.218,0,0,1-.871,1.916,1.549,1.549,0,0,0-.522,1.045A13.584,13.584,0,0,1,285,442.481a4.342,4.342,0,0,1-1.219.087,21.523,21.523,0,0,1-4.877-.348l.523-.348-.435-.174-1.045.348a5.8,5.8,0,0,0-1.655-.523,11.711,11.711,0,0,1-6.27-6.618,9.109,9.109,0,0,1-.348-1.393l-.174-1.393A62.973,62.973,0,0,0,269.674,425.5Z" transform="translate(-269.5 -425.5)" fill="#0a61a2" fill-rule="evenodd"/>
    </g>
    <g id="组_2608" data-name="组 2608" transform="translate(71.953 76.829)">
      <path id="路径_2588" data-name="路径 2588" d="M416.893,443.5a12.007,12.007,0,0,1-.174,4.528,1.24,1.24,0,0,0,.523,1.219,2.6,2.6,0,0,1-.348,1.568h-.522a.539.539,0,0,0-.174-.523.945.945,0,0,0,0,1.045.637.637,0,0,1-.7,0,14.893,14.893,0,0,0,1.219-5.573A7.462,7.462,0,0,0,416.893,443.5Z" transform="translate(-415.5 -443.5)" fill="#1d6691" fill-rule="evenodd"/>
    </g>
    <g id="组_2609" data-name="组 2609" transform="translate(110.443 83.796)">
      <path id="路径_2589" data-name="路径 2589" d="M637.023,483.5a.947.947,0,0,1-.523.871A1.15,1.15,0,0,1,637.023,483.5Z" transform="translate(-636.5 -483.5)" fill="#447962" fill-rule="evenodd"/>
    </g>
    <g id="组_2610" data-name="组 2610" transform="translate(44.783 73.174)">
      <path id="路径_2590" data-name="路径 2590" d="M261.416,422.856h-.522a66.339,66.339,0,0,0,.174,6.792,2.19,2.19,0,0,0,.348,1.393,9.109,9.109,0,0,0,.348,1.393,11.711,11.711,0,0,0,6.27,6.618,2.451,2.451,0,0,0,1.045.61q1.291.388,2.612.7a10.06,10.06,0,0,0,3.832-.261,4.342,4.342,0,0,0,1.219-.087,13.584,13.584,0,0,0,7.141-5.138,1.549,1.549,0,0,0,.522-1.045,19.221,19.221,0,0,0,.871-1.916,15.43,15.43,0,0,0,.61-1.916,4.342,4.342,0,0,0,.087-1.219.8.8,0,0,0,.174-.7h-4.528V429.3q-.233.953-.522,1.916a8.939,8.939,0,0,1-5.573,4.877,14.029,14.029,0,0,1-4.354,0,9.713,9.713,0,0,1-2.264-.958q-1.192-1.148-2.264-2.351a10.374,10.374,0,0,0-1.045-1.916,41.386,41.386,0,0,1-.348-6.792,9.364,9.364,0,0,1-1.916-.7,7.889,7.889,0,0,1,2.264.522,53.5,53.5,0,0,0,.174,6.1,2.368,2.368,0,0,0,.958,1.393,10.4,10.4,0,0,0,.087,1.045,2.477,2.477,0,0,0,.871-.958,2.261,2.261,0,0,1-.348-1.48,7.231,7.231,0,0,0,2.961,3.483,2.542,2.542,0,0,0,1.567.784,9.288,9.288,0,0,0,3.657-.261,29.98,29.98,0,0,0,2.613-1.568,8.791,8.791,0,0,0,1.393-2.787,1.674,1.674,0,0,0,.174-1.045,7.462,7.462,0,0,0,.174-2.264h8.012v2.09A14.893,14.893,0,0,1,286.67,434q-4.83,8.879-14.978,8.273A15.106,15.106,0,0,1,259.5,432.087a1.9,1.9,0,0,1,.958,1.045,2.68,2.68,0,0,0,.522-1.045q-.184-4.677-.61-9.318Q260.992,422.209,261.416,422.856Z" transform="translate(-259.5 -422.509)" fill="#f4f01a" fill-rule="evenodd"/>
    </g>
    <g id="组_2611" data-name="组 2611" transform="translate(56.452 86.757)">
      <path id="路径_2591" data-name="路径 2591" d="M326.5,500.5a14.031,14.031,0,0,0,4.354,0,6.064,6.064,0,0,1-2.09.348l-2.09-.087A.394.394,0,0,1,326.5,500.5Z" transform="translate(-326.5 -500.5)" fill="#37756a" fill-rule="evenodd"/>
    </g>
    <g id="组_2612" data-name="组 2612" transform="translate(69.166 84.493)">
      <path id="路径_2592" data-name="路径 2592" d="M400.022,487.5a1.549,1.549,0,0,1-.522,1.045A1.549,1.549,0,0,1,400.022,487.5Z" transform="translate(-399.5 -487.5)" fill="#6f9755" fill-rule="evenodd"/>
    </g>
    <g id="组_2613" data-name="组 2613" transform="translate(55.581 84.144)">
      <path id="路径_2593" data-name="路径 2593" d="M321.5,485.5a1.391,1.391,0,0,0,1.306,0l.261.087a.777.777,0,0,0-.348.261,2.563,2.563,0,0,0,.871.261,20.19,20.19,0,0,0,3.135-.087,9.289,9.289,0,0,1-3.657.261A2.542,2.542,0,0,1,321.5,485.5Z" transform="translate(-321.5 -485.5)" fill="#2b6c72" fill-rule="evenodd"/>
    </g>
    <g id="组_2614" data-name="组 2614" transform="translate(50.879 81.532)">
      <path id="路径_2594" data-name="路径 2594" d="M294.5,470.5a10.38,10.38,0,0,1,1.045,1.916A3.14,3.14,0,0,1,294.5,470.5Z" transform="translate(-294.5 -470.5)" fill="#357078" fill-rule="evenodd"/>
    </g>
    <g id="组_2615" data-name="组 2615" transform="translate(46.344 80.313)">
      <path id="路径_2595" data-name="路径 2595" d="M268.47,463.5h.174l.174,1.393A2.19,2.19,0,0,1,268.47,463.5Z" transform="translate(-268.464 -463.5)" fill="#326e56" fill-rule="evenodd"/>
    </g>
    <g id="组_2616" data-name="组 2616" transform="translate(66.38 78.919)">
      <path id="路径_2596" data-name="路径 2596" d="M388.377,456.023a4.342,4.342,0,0,1-.087,1.219,15.442,15.442,0,0,1-.61,1.916,4.364,4.364,0,0,0,0-2.177.86.86,0,0,1,.522-.087v-1.219a5.42,5.42,0,0,0-1.916.174,2.4,2.4,0,0,0,1.567,0v.523a.765.765,0,0,1-.61-.174,4.128,4.128,0,0,0,.261,1.655l-.174.435a5.059,5.059,0,0,1-.348-1.393.569.569,0,0,0-.61.348l-.174-.348q-.466,3.8-.435,0h-.523a4.567,4.567,0,0,1-.261,2.09,8.681,8.681,0,0,0-.784-2.09,10.629,10.629,0,0,0-.348,1.306.332.332,0,0,1-.348.261q.29-.962.523-1.916a1.674,1.674,0,0,0,.174-1.045h4.18Z" transform="translate(-383.5 -455.5)" fill="#16649a" fill-rule="evenodd"/>
    </g>
    <g id="组_2617" data-name="组 2617" transform="translate(66.902 78.745)">
      <path id="路径_2597" data-name="路径 2597" d="M390.854,455.2v-.522h-4.18a1.674,1.674,0,0,1-.174,1.045V454.5h4.528A.8.8,0,0,1,390.854,455.2Z" transform="translate(-386.5 -454.5)" fill="#316a48" fill-rule="evenodd"/>
    </g>
    <g id="组_2618" data-name="组 2618" transform="translate(99.819 89.021)">
      <path id="路径_2598" data-name="路径 2598" d="M576.2,513.5a3.766,3.766,0,0,1-.7.871A.866.866,0,0,1,576.2,513.5Z" transform="translate(-575.5 -513.5)" fill="#6b9952" fill-rule="evenodd"/>
    </g>
    <g id="组_2619" data-name="组 2619" transform="translate(53.317 89.718)">
      <path id="路径_2599" data-name="路径 2599" d="M308.5,517.5a5.8,5.8,0,0,1,1.655.523l1.045-.348.435.174-.522.348a21.525,21.525,0,0,0,4.877.348,10.059,10.059,0,0,1-3.832.261q-1.322-.308-2.612-.7A2.451,2.451,0,0,1,308.5,517.5Z" transform="translate(-308.5 -517.5)" fill="#3d7376" fill-rule="evenodd"/>
    </g>
    <g id="组_2620" data-name="组 2620" transform="translate(99.819 97.555)">
      <path id="路径_2600" data-name="路径 2600" d="M577.416,562.5a15.8,15.8,0,0,1-.435,1.568,1.262,1.262,0,0,0-.435-.348,3.046,3.046,0,0,1-1.045.7A14.927,14.927,0,0,1,577.416,562.5Z" transform="translate(-575.5 -562.5)" fill="#326e84" fill-rule="evenodd"/>
    </g>
    <g id="组_2621" data-name="组 2621" transform="translate(41.3 106.612)">
      <path id="路径_2601" data-name="路径 2601" d="M239.5,614.5a6.951,6.951,0,0,1,2.612.871A11.517,11.517,0,0,1,239.5,614.5Z" transform="translate(-239.5 -614.5)" fill="#4e7f69" fill-rule="evenodd"/>
    </g>
    <g id="组_2622" data-name="组 2622" transform="translate(70.908 108.179)">
      <path id="路径_2602" data-name="路径 2602" d="M411.242,623.5a.576.576,0,0,1-.348.261,5.657,5.657,0,0,1-1.393.087A6.788,6.788,0,0,1,411.242,623.5Z" transform="translate(-409.5 -623.5)" fill="#3f7658" fill-rule="evenodd"/>
    </g>
    <g id="组_2623" data-name="组 2623" transform="translate(48.266 108.702)">
      <path id="路径_2603" data-name="路径 2603" d="M279.5,626.5q2.606.405,5.225.7v.174A23.069,23.069,0,0,1,279.5,626.5Z" transform="translate(-279.5 -626.5)" fill="#467c65" fill-rule="evenodd"/>
    </g>
    <g id="组_2624" data-name="组 2624" transform="translate(69.166 108.7)">
      <path id="路径_2604" data-name="路径 2604" d="M400.719,626.493a1.94,1.94,0,0,1-1.219.348A1.94,1.94,0,0,1,400.719,626.493Z" transform="translate(-399.5 -626.492)" fill="#508650" fill-rule="evenodd"/>
    </g>
    <g id="组_2625" data-name="组 2625" transform="translate(53.491 109.05)">
      <path id="路径_2605" data-name="路径 2605" d="M318.557,629.2v.174q-3.659.044-7.315-.087a11.347,11.347,0,0,1-1.742-.261v-.174a15.919,15.919,0,0,0,4.006-.348q.7.114,1.393.261a9.3,9.3,0,0,0-2.438.348Q315.508,629.24,318.557,629.2Z" transform="translate(-309.5 -628.5)" fill="#1c6389" fill-rule="evenodd"/>
    </g>
    <g id="组_2626" data-name="组 2626" transform="translate(63.593 109.387)">
      <path id="路径_2606" data-name="路径 2606" d="M370.983,630.445a26.209,26.209,0,0,1-3.483.348A12.05,12.05,0,0,1,370.983,630.445Z" transform="translate(-367.5 -630.433)" fill="#347267" fill-rule="evenodd"/>
    </g>
    <g id="组_2627" data-name="组 2627" transform="translate(62.548 109.05)">
      <path id="路径_2607" data-name="路径 2607" d="M368.118,628.5a5.245,5.245,0,0,1-1.045.61q-2.784.2-5.573.261V629.2h1.045a26.2,26.2,0,0,0,3.483-.348A15.091,15.091,0,0,1,368.118,628.5Z" transform="translate(-361.5 -628.5)" fill="#cfdf3e" fill-rule="evenodd"/>
    </g>
    <g id="组_2628" data-name="组 2628" transform="translate(81.706 110.966)">
      <path id="路径_2608" data-name="路径 2608" d="M473.242,639.5v.522l-1.742.348A3.844,3.844,0,0,1,473.242,639.5Z" transform="translate(-471.5 -639.5)" fill="#497f6d" fill-rule="evenodd"/>
    </g>
    <g id="组_2629" data-name="组 2629" transform="translate(39.036 112.533)">
      <path id="路径_2609" data-name="路径 2609" d="M226.5,648.5a2.027,2.027,0,0,1,1.219.523A2.027,2.027,0,0,1,226.5,648.5Z" transform="translate(-226.5 -648.5)" fill="#5c8c5a" fill-rule="evenodd"/>
    </g>
    <g id="组_2630" data-name="组 2630" transform="translate(74.739 113.753)">
      <path id="路径_2610" data-name="路径 2610" d="M433.242,655.5a.905.905,0,0,0,.522.522l-.348.174a6.906,6.906,0,0,0-1.916-.174A3.828,3.828,0,0,1,433.242,655.5Z" transform="translate(-431.5 -655.5)" fill="#2f6d87" fill-rule="evenodd"/>
    </g>
    <g id="组_2631" data-name="组 2631" transform="translate(73.52 114.274)">
      <path id="路径_2611" data-name="路径 2611" d="M425.719,658.493a1.939,1.939,0,0,1-1.219.348A1.939,1.939,0,0,1,425.719,658.493Z" transform="translate(-424.5 -658.492)" fill="#3e8054" fill-rule="evenodd"/>
    </g>
    <g id="组_2632" data-name="组 2632" transform="translate(45.131 114.441)">
      <path id="路径_2612" data-name="路径 2612" d="M261.5,659.46a1.24,1.24,0,0,1,1.045.348A1.24,1.24,0,0,1,261.5,659.46Z" transform="translate(-261.5 -659.452)" fill="#7fa353" fill-rule="evenodd"/>
    </g>
    <g id="组_2633" data-name="组 2633" transform="translate(63.593 115.668)">
      <path id="路径_2613" data-name="路径 2613" d="M372.028,666.5a.576.576,0,0,1-.348.261q-2.086.217-4.18.261Q369.72,666.7,372.028,666.5Z" transform="translate(-367.5 -666.5)" fill="#598952" fill-rule="evenodd"/>
    </g>
    <g id="组_2634" data-name="组 2634" transform="translate(52.969 116.017)">
      <path id="路径_2614" data-name="路径 2614" d="M306.5,668.5q4.7.231,9.4.174a.575.575,0,0,1-.348.261,64.956,64.956,0,0,1-8.186-.174A2.273,2.273,0,0,1,306.5,668.5Z" transform="translate(-306.5 -668.5)" fill="#4e8063" fill-rule="evenodd"/>
    </g>
  </g>
</svg>
