<svg xmlns="http://www.w3.org/2000/svg" width="1063" height="116" viewBox="0 0 1063 116">
  <defs>
    <style>
      .cls-1 {
        fill: #dcdfe6;
      }

      .cls-2 {
        fill: #606266;
        font-size: 14px;
        font-family: SourceHanSansCN-Medium, Source Han Sans CN;
        font-weight: 500;
      }

      .cls-3, .cls-6 {
        opacity: 0.8;
      }

      .cls-4 {
        fill: none;
      }

      .cls-5, .cls-6 {
        fill: #1885fc;
      }
    </style>
  </defs>
  <g id="nslc" transform="translate(-281 -193)">
    <rect id="矩形_1572" data-name="矩形 1572" class="cls-1" width="88" height="32" rx="4" transform="translate(281 241)"/>
    <rect id="矩形_1573" data-name="矩形 1573" class="cls-1" width="88" height="32" rx="4" transform="translate(476 241)"/>
    <rect id="矩形_1580" data-name="矩形 1580" class="cls-1" width="116" height="32" rx="4" transform="translate(476 277)"/>
    <rect id="矩形_1574" data-name="矩形 1574" class="cls-1" width="88" height="32" rx="4" transform="translate(671 241)"/>
    <rect id="矩形_1584" data-name="矩形 1584" class="cls-1" width="88" height="32" rx="4" transform="translate(769 195)"/>
    <rect id="矩形_1575" data-name="矩形 1575" class="cls-1" width="88" height="32" rx="4" transform="translate(866 241)"/>
    <rect id="矩形_1576" data-name="矩形 1576" class="cls-1" width="88" height="32" rx="4" transform="translate(1061 241)"/>
    <rect id="矩形_1577" data-name="矩形 1577" class="cls-1" width="88" height="32" rx="4" transform="translate(1256 205)"/>
    <rect id="矩形_1578" data-name="矩形 1578" class="cls-1" width="88" height="32" rx="4" transform="translate(1256 241)"/>
    <rect id="矩形_1579" data-name="矩形 1579" class="cls-1" width="88" height="32" rx="4" transform="translate(1256 277)"/>
    <text id="初始年审" class="cls-2" transform="translate(297 262)"><tspan x="0" y="0">初始年审</tspan></text>
    <text id="年审提醒" class="cls-2" transform="translate(492 262)"><tspan x="0" y="0">年审提醒</tspan></text>
    <text id="异常提醒检查" class="cls-2" transform="translate(492 298)"><tspan x="0" y="0">异常提醒检查</tspan></text>
    <text id="生成" class="cls-2" transform="translate(404 249)"><tspan x="0" y="0">生成</tspan></text>
    <text id="生成-2" data-name="生成" class="cls-2" transform="translate(620 205)"><tspan x="0" y="0">生成</tspan></text>
    <text id="下发任务" class="cls-2" transform="translate(687 262)"><tspan x="0" y="0">下发任务</tspan></text>
    <text id="年审规则" class="cls-2" transform="translate(785 216)"><tspan x="0" y="0">年审规则</tspan></text>
    <text id="年审排班" class="cls-2" transform="translate(882 262)"><tspan x="0" y="0">年审排班</tspan></text>
    <text id="登记年审" class="cls-2" transform="translate(1077 262)"><tspan x="0" y="0">登记年审</tspan></text>
    <text id="登记年审-2" data-name="登记年审" class="cls-2" transform="translate(1272 226)"><tspan x="0" y="0">登记年审</tspan></text>
    <text id="多次年审" class="cls-2" transform="translate(1272 262)"><tspan x="0" y="0">多次年审</tspan></text>
    <text id="超期年审" class="cls-2" transform="translate(1272 298)"><tspan x="0" y="0">超期年审</tspan></text>
    <g id="组_2614" data-name="组 2614" class="cls-3" transform="translate(442 248)">
      <path id="路径_2864" data-name="路径 2864" class="cls-4" d="M0,0H18V18H0Z"/>
      <path id="路径_2865" data-name="路径 2865" class="cls-5" d="M10,10.75H-56V9.25H10V4l6,6-6,6Z" transform="translate(-1 -1)"/>
    </g>
    <g id="组_2619" data-name="组 2619" class="cls-3" transform="translate(529 219) rotate(90)">
      <path id="路径_2864-2" data-name="路径 2864" class="cls-4" d="M0,0H18V18H0Z"/>
      <path id="路径_2865-2" data-name="路径 2865" class="cls-5" d="M10,10.75H-6V9.25H10V4l6,6-6,6Z" transform="translate(-1 -1)"/>
      <path id="路径_2867" data-name="路径 2867" class="cls-5" d="M19,10.75H-6V9.25H19Z" transform="translate(-1 -587)"/>
      <path id="路径_2866" data-name="路径 2866" class="cls-5" d="M218.25,10.75l-235,.016v-1.5l235-.016Z" transform="translate(-17 -6.75) rotate(-90)"/>
      <path id="路径_2882" data-name="路径 2882" class="cls-5" d="M218.25,10.75l-235,.016v-1.5l235-.016Z" transform="translate(-17 -359.5) rotate(-90)"/>
    </g>
    <g id="组_2615" data-name="组 2615" class="cls-3" transform="translate(637 248)">
      <path id="路径_2864-3" data-name="路径 2864" class="cls-4" d="M0,0H18V18H0Z"/>
      <path id="路径_2865-3" data-name="路径 2865" class="cls-5" d="M10,10.75H-56V9.25H10V4l6,6-6,6Z" transform="translate(-1 -1)"/>
    </g>
    <g id="组_2616" data-name="组 2616" class="cls-3" transform="translate(832 248)">
      <path id="路径_2864-4" data-name="路径 2864" class="cls-4" d="M0,0H18V18H0Z"/>
      <path id="路径_2865-4" data-name="路径 2865" class="cls-5" d="M10,10.75H-56V9.25H10V4l6,6-6,6Z" transform="translate(-1 -1)"/>
    </g>
    <g id="组_2617" data-name="组 2617" class="cls-3" transform="translate(1027 248)">
      <path id="路径_2864-5" data-name="路径 2864" class="cls-4" d="M0,0H18V18H0Z"/>
      <path id="路径_2865-5" data-name="路径 2865" class="cls-5" d="M10,10.75H-56V9.25H10V4l6,6-6,6Z" transform="translate(-1 -1)"/>
    </g>
    <g id="组_2618" data-name="组 2618" class="cls-3" transform="translate(1222 248)">
      <path id="路径_2864-6" data-name="路径 2864" class="cls-4" d="M0,0H18V18H0Z"/>
      <path id="路径_2865-6" data-name="路径 2865" class="cls-5" d="M10,10.75H-56V9.25H10V4l6,6-6,6Z" transform="translate(-1 -1)"/>
    </g>
    <g id="组_2620" data-name="组 2620" class="cls-3" transform="translate(1222 212)">
      <path id="路径_2864-7" data-name="路径 2864" class="cls-4" d="M0,0H18V18H0Z"/>
      <path id="路径_2865-7" data-name="路径 2865" class="cls-5" d="M10,10.75H-23V9.25H10V4l6,6-6,6Z" transform="translate(-1 -1)"/>
    </g>
    <g id="组_2621" data-name="组 2621" class="cls-3" transform="translate(1222 284)">
      <path id="路径_2864-8" data-name="路径 2864" class="cls-4" d="M0,0H18V18H0Z"/>
      <path id="路径_2865-8" data-name="路径 2865" class="cls-5" d="M10,10.75H-23V9.25H10V4l6,6-6,6Z" transform="translate(-1 -1)"/>
    </g>
    <path id="路径_2868" data-name="路径 2868" class="cls-6" d="M66.461,10.75H-6V9.25H66.461Z" transform="translate(1208.75 227) rotate(90)"/>
  </g>
</svg>
