<?xml version="1.0" standalone="no"?><!DOCTYPE svg PUBLIC "-//W3C//DTD SVG 1.1//EN" "http://www.w3.org/Graphics/SVG/1.1/DTD/svg11.dtd"><svg t="1613985311373" class="icon" viewBox="0 0 1024 1024" version="1.1" xmlns="http://www.w3.org/2000/svg" p-id="2005" xmlns:xlink="http://www.w3.org/1999/xlink" width="40" height="40"><defs><style type="text/css"></style></defs><path d="M0 512a512 512 0 1 0 512-512 512 512 0 0 0-512 512z" fill="#F29B37" p-id="2006"></path><path d="M719.872 164.132571a2.413714 2.413714 0 0 0-2.340571 1.097143c-21.942857 0-29.257143 7.314286-56.393143 64s-103.497143 263.972571-80.457143 314.514286 104.886857 30.866286 104.886857 85.138286v216.283428a34.889143 34.889143 0 1 0 68.973714 0v-641.462857a38.034286 38.034286 0 0 0-34.669714-39.570286zM442.514286 163.620571v93.257143a10.825143 10.825143 0 1 1-21.430857 0V163.620571h-21.430858v93.257143a10.825143 10.825143 0 1 1-21.430857 0V163.620571h-20.48v93.257143a10.825143 10.825143 0 1 1-21.430857 0V163.620571h-26.550857l-19.602286 251.538286a113.444571 113.444571 0 0 0 63.853715 106.276572v323.072a34.889143 34.889143 0 1 0 68.973714 0V521.435429a114.614857 114.614857 0 0 0 62.464-105.179429L469.577143 163.620571z" fill="#FFFFFF" p-id="2007"></path></svg>